<svg xmlns="http://www.w3.org/2000/svg" xmlns:xlink="http://www.w3.org/1999/xlink" width="600" height="400" viewBox="0 0 2400 1600">
<defs>
  <clipPath id="clip860">
    <rect x="0" y="0" width="2400" height="1600"></rect>
  </clipPath>
</defs>
<path clip-path="url(#clip860)" d="M0 1600 L2400 1600 L2400 0 L0 0  Z" fill="#ffffff" fill-rule="evenodd" fill-opacity="1"></path>
<defs>
  <clipPath id="clip861">
    <rect x="480" y="0" width="1681" height="1600"></rect>
  </clipPath>
</defs>
<path clip-path="url(#clip860)" d="M186.76 1486.45 L2352.76 1486.45 L2352.76 47.2441 L186.76 47.2441  Z" fill="#ffffff" fill-rule="evenodd" fill-opacity="1"></path>
<defs>
  <clipPath id="clip862">
    <rect x="186" y="47" width="2167" height="1440"></rect>
  </clipPath>
</defs>
<polyline clip-path="url(#clip862)" style="stroke:#000000; stroke-linecap:round; stroke-linejoin:round; stroke-width:2; stroke-opacity:0.1; fill:none" points="205.491,1486.45 205.491,47.2441 "></polyline>
<polyline clip-path="url(#clip862)" style="stroke:#000000; stroke-linecap:round; stroke-linejoin:round; stroke-width:2; stroke-opacity:0.1; fill:none" points="737.625,1486.45 737.625,47.2441 "></polyline>
<polyline clip-path="url(#clip862)" style="stroke:#000000; stroke-linecap:round; stroke-linejoin:round; stroke-width:2; stroke-opacity:0.1; fill:none" points="1269.76,1486.45 1269.76,47.2441 "></polyline>
<polyline clip-path="url(#clip862)" style="stroke:#000000; stroke-linecap:round; stroke-linejoin:round; stroke-width:2; stroke-opacity:0.1; fill:none" points="1801.89,1486.45 1801.89,47.2441 "></polyline>
<polyline clip-path="url(#clip862)" style="stroke:#000000; stroke-linecap:round; stroke-linejoin:round; stroke-width:2; stroke-opacity:0.1; fill:none" points="2334.02,1486.45 2334.02,47.2441 "></polyline>
<polyline clip-path="url(#clip860)" style="stroke:#000000; stroke-linecap:round; stroke-linejoin:round; stroke-width:4; stroke-opacity:1; fill:none" points="186.76,1486.45 2352.76,1486.45 "></polyline>
<polyline clip-path="url(#clip860)" style="stroke:#000000; stroke-linecap:round; stroke-linejoin:round; stroke-width:4; stroke-opacity:1; fill:none" points="205.491,1486.45 205.491,1467.55 "></polyline>
<polyline clip-path="url(#clip860)" style="stroke:#000000; stroke-linecap:round; stroke-linejoin:round; stroke-width:4; stroke-opacity:1; fill:none" points="737.625,1486.45 737.625,1467.55 "></polyline>
<polyline clip-path="url(#clip860)" style="stroke:#000000; stroke-linecap:round; stroke-linejoin:round; stroke-width:4; stroke-opacity:1; fill:none" points="1269.76,1486.45 1269.76,1467.55 "></polyline>
<polyline clip-path="url(#clip860)" style="stroke:#000000; stroke-linecap:round; stroke-linejoin:round; stroke-width:4; stroke-opacity:1; fill:none" points="1801.89,1486.45 1801.89,1467.55 "></polyline>
<polyline clip-path="url(#clip860)" style="stroke:#000000; stroke-linecap:round; stroke-linejoin:round; stroke-width:4; stroke-opacity:1; fill:none" points="2334.02,1486.45 2334.02,1467.55 "></polyline>
<path clip-path="url(#clip860)" d="M167.795 1517.37 Q164.184 1517.37 162.355 1520.93 Q160.549 1524.47 160.549 1531.6 Q160.549 1538.71 162.355 1542.27 Q164.184 1545.82 167.795 1545.82 Q171.429 1545.82 173.234 1542.27 Q175.063 1538.71 175.063 1531.6 Q175.063 1524.47 173.234 1520.93 Q171.429 1517.37 167.795 1517.37 M167.795 1513.66 Q173.605 1513.66 176.66 1518.27 Q179.739 1522.85 179.739 1531.6 Q179.739 1540.33 176.66 1544.94 Q173.605 1549.52 167.795 1549.52 Q161.984 1549.52 158.906 1544.94 Q155.85 1540.33 155.85 1531.6 Q155.85 1522.85 158.906 1518.27 Q161.984 1513.66 167.795 1513.66 Z" fill="#000000" fill-rule="nonzero" fill-opacity="1"></path><path clip-path="url(#clip860)" d="M187.957 1542.97 L192.841 1542.97 L192.841 1548.85 L187.957 1548.85 L187.957 1542.97 Z" fill="#000000" fill-rule="nonzero" fill-opacity="1"></path><path clip-path="url(#clip860)" d="M213.026 1517.37 Q209.415 1517.37 207.586 1520.93 Q205.781 1524.47 205.781 1531.6 Q205.781 1538.71 207.586 1542.27 Q209.415 1545.82 213.026 1545.82 Q216.66 1545.82 218.466 1542.27 Q220.294 1538.71 220.294 1531.6 Q220.294 1524.47 218.466 1520.93 Q216.66 1517.37 213.026 1517.37 M213.026 1513.66 Q218.836 1513.66 221.892 1518.27 Q224.97 1522.85 224.97 1531.6 Q224.97 1540.33 221.892 1544.94 Q218.836 1549.52 213.026 1549.52 Q207.216 1549.52 204.137 1544.94 Q201.082 1540.33 201.082 1531.6 Q201.082 1522.85 204.137 1518.27 Q207.216 1513.66 213.026 1513.66 Z" fill="#000000" fill-rule="nonzero" fill-opacity="1"></path><path clip-path="url(#clip860)" d="M243.188 1517.37 Q239.577 1517.37 237.748 1520.93 Q235.942 1524.47 235.942 1531.6 Q235.942 1538.71 237.748 1542.27 Q239.577 1545.82 243.188 1545.82 Q246.822 1545.82 248.628 1542.27 Q250.456 1538.71 250.456 1531.6 Q250.456 1524.47 248.628 1520.93 Q246.822 1517.37 243.188 1517.37 M243.188 1513.66 Q248.998 1513.66 252.053 1518.27 Q255.132 1522.85 255.132 1531.6 Q255.132 1540.33 252.053 1544.94 Q248.998 1549.52 243.188 1549.52 Q237.378 1549.52 234.299 1544.94 Q231.243 1540.33 231.243 1531.6 Q231.243 1522.85 234.299 1518.27 Q237.378 1513.66 243.188 1513.66 Z" fill="#000000" fill-rule="nonzero" fill-opacity="1"></path><path clip-path="url(#clip860)" d="M700.426 1517.37 Q696.815 1517.37 694.986 1520.93 Q693.18 1524.47 693.18 1531.6 Q693.18 1538.71 694.986 1542.27 Q696.815 1545.82 700.426 1545.82 Q704.06 1545.82 705.866 1542.27 Q707.694 1538.71 707.694 1531.6 Q707.694 1524.47 705.866 1520.93 Q704.06 1517.37 700.426 1517.37 M700.426 1513.66 Q706.236 1513.66 709.291 1518.27 Q712.37 1522.85 712.37 1531.6 Q712.37 1540.33 709.291 1544.94 Q706.236 1549.52 700.426 1549.52 Q694.616 1549.52 691.537 1544.94 Q688.481 1540.33 688.481 1531.6 Q688.481 1522.85 691.537 1518.27 Q694.616 1513.66 700.426 1513.66 Z" fill="#000000" fill-rule="nonzero" fill-opacity="1"></path><path clip-path="url(#clip860)" d="M720.588 1542.97 L725.472 1542.97 L725.472 1548.85 L720.588 1548.85 L720.588 1542.97 Z" fill="#000000" fill-rule="nonzero" fill-opacity="1"></path><path clip-path="url(#clip860)" d="M739.685 1544.91 L756.004 1544.91 L756.004 1548.85 L734.06 1548.85 L734.06 1544.91 Q736.722 1542.16 741.305 1537.53 Q745.912 1532.88 747.092 1531.53 Q749.338 1529.01 750.217 1527.27 Q751.12 1525.51 751.12 1523.82 Q751.12 1521.07 749.175 1519.33 Q747.254 1517.6 744.152 1517.6 Q741.953 1517.6 739.5 1518.36 Q737.069 1519.13 734.291 1520.68 L734.291 1515.95 Q737.115 1514.82 739.569 1514.24 Q742.023 1513.66 744.06 1513.66 Q749.43 1513.66 752.625 1516.35 Q755.819 1519.03 755.819 1523.52 Q755.819 1525.65 755.009 1527.57 Q754.222 1529.47 752.115 1532.07 Q751.537 1532.74 748.435 1535.95 Q745.333 1539.15 739.685 1544.91 Z" fill="#000000" fill-rule="nonzero" fill-opacity="1"></path><path clip-path="url(#clip860)" d="M765.865 1514.29 L784.222 1514.29 L784.222 1518.22 L770.148 1518.22 L770.148 1526.7 Q771.166 1526.35 772.185 1526.19 Q773.203 1526 774.222 1526 Q780.009 1526 783.388 1529.17 Q786.768 1532.34 786.768 1537.76 Q786.768 1543.34 783.296 1546.44 Q779.823 1549.52 773.504 1549.52 Q771.328 1549.52 769.06 1549.15 Q766.814 1548.78 764.407 1548.04 L764.407 1543.34 Q766.49 1544.47 768.712 1545.03 Q770.935 1545.58 773.411 1545.58 Q777.416 1545.58 779.754 1543.48 Q782.092 1541.37 782.092 1537.76 Q782.092 1534.15 779.754 1532.04 Q777.416 1529.94 773.411 1529.94 Q771.536 1529.94 769.661 1530.35 Q767.81 1530.77 765.865 1531.65 L765.865 1514.29 Z" fill="#000000" fill-rule="nonzero" fill-opacity="1"></path><path clip-path="url(#clip860)" d="M1232.06 1517.37 Q1228.45 1517.37 1226.62 1520.93 Q1224.82 1524.47 1224.82 1531.6 Q1224.82 1538.71 1226.62 1542.27 Q1228.45 1545.82 1232.06 1545.82 Q1235.7 1545.82 1237.5 1542.27 Q1239.33 1538.71 1239.33 1531.6 Q1239.33 1524.47 1237.5 1520.93 Q1235.7 1517.37 1232.06 1517.37 M1232.06 1513.66 Q1237.87 1513.66 1240.93 1518.27 Q1244.01 1522.85 1244.01 1531.6 Q1244.01 1540.33 1240.93 1544.94 Q1237.87 1549.52 1232.06 1549.52 Q1226.25 1549.52 1223.17 1544.94 Q1220.12 1540.33 1220.12 1531.6 Q1220.12 1522.85 1223.17 1518.27 Q1226.25 1513.66 1232.06 1513.66 Z" fill="#000000" fill-rule="nonzero" fill-opacity="1"></path><path clip-path="url(#clip860)" d="M1252.22 1542.97 L1257.11 1542.97 L1257.11 1548.85 L1252.22 1548.85 L1252.22 1542.97 Z" fill="#000000" fill-rule="nonzero" fill-opacity="1"></path><path clip-path="url(#clip860)" d="M1267.34 1514.29 L1285.7 1514.29 L1285.7 1518.22 L1271.62 1518.22 L1271.62 1526.7 Q1272.64 1526.35 1273.66 1526.19 Q1274.68 1526 1275.7 1526 Q1281.48 1526 1284.86 1529.17 Q1288.24 1532.34 1288.24 1537.76 Q1288.24 1543.34 1284.77 1546.44 Q1281.3 1549.52 1274.98 1549.52 Q1272.8 1549.52 1270.53 1549.15 Q1268.29 1548.78 1265.88 1548.04 L1265.88 1543.34 Q1267.96 1544.47 1270.19 1545.03 Q1272.41 1545.58 1274.89 1545.58 Q1278.89 1545.58 1281.23 1543.48 Q1283.57 1541.37 1283.57 1537.76 Q1283.57 1534.15 1281.23 1532.04 Q1278.89 1529.94 1274.89 1529.94 Q1273.01 1529.94 1271.14 1530.35 Q1269.28 1530.77 1267.34 1531.65 L1267.34 1514.29 Z" fill="#000000" fill-rule="nonzero" fill-opacity="1"></path><path clip-path="url(#clip860)" d="M1307.45 1517.37 Q1303.84 1517.37 1302.01 1520.93 Q1300.21 1524.47 1300.21 1531.6 Q1300.21 1538.71 1302.01 1542.27 Q1303.84 1545.82 1307.45 1545.82 Q1311.09 1545.82 1312.89 1542.27 Q1314.72 1538.71 1314.72 1531.6 Q1314.72 1524.47 1312.89 1520.93 Q1311.09 1517.37 1307.45 1517.37 M1307.45 1513.66 Q1313.26 1513.66 1316.32 1518.27 Q1319.4 1522.85 1319.4 1531.6 Q1319.4 1540.33 1316.32 1544.94 Q1313.26 1549.52 1307.45 1549.52 Q1301.64 1549.52 1298.57 1544.94 Q1295.51 1540.33 1295.51 1531.6 Q1295.51 1522.85 1298.57 1518.27 Q1301.64 1513.66 1307.45 1513.66 Z" fill="#000000" fill-rule="nonzero" fill-opacity="1"></path><path clip-path="url(#clip860)" d="M1764.69 1517.37 Q1761.08 1517.37 1759.25 1520.93 Q1757.45 1524.47 1757.45 1531.6 Q1757.45 1538.71 1759.25 1542.27 Q1761.08 1545.82 1764.69 1545.82 Q1768.33 1545.82 1770.13 1542.27 Q1771.96 1538.71 1771.96 1531.6 Q1771.96 1524.47 1770.13 1520.93 Q1768.33 1517.37 1764.69 1517.37 M1764.69 1513.66 Q1770.5 1513.66 1773.56 1518.27 Q1776.64 1522.85 1776.64 1531.6 Q1776.64 1540.33 1773.56 1544.94 Q1770.5 1549.52 1764.69 1549.52 Q1758.88 1549.52 1755.8 1544.94 Q1752.75 1540.33 1752.75 1531.6 Q1752.75 1522.85 1755.8 1518.27 Q1758.88 1513.66 1764.69 1513.66 Z" fill="#000000" fill-rule="nonzero" fill-opacity="1"></path><path clip-path="url(#clip860)" d="M1784.85 1542.97 L1789.74 1542.97 L1789.74 1548.85 L1784.85 1548.85 L1784.85 1542.97 Z" fill="#000000" fill-rule="nonzero" fill-opacity="1"></path><path clip-path="url(#clip860)" d="M1798.74 1514.29 L1820.97 1514.29 L1820.97 1516.28 L1808.42 1548.85 L1803.53 1548.85 L1815.34 1518.22 L1798.74 1518.22 L1798.74 1514.29 Z" fill="#000000" fill-rule="nonzero" fill-opacity="1"></path><path clip-path="url(#clip860)" d="M1830.13 1514.29 L1848.49 1514.29 L1848.49 1518.22 L1834.41 1518.22 L1834.41 1526.7 Q1835.43 1526.35 1836.45 1526.19 Q1837.47 1526 1838.49 1526 Q1844.28 1526 1847.66 1529.17 Q1851.03 1532.34 1851.03 1537.76 Q1851.03 1543.34 1847.56 1546.44 Q1844.09 1549.52 1837.77 1549.52 Q1835.59 1549.52 1833.33 1549.15 Q1831.08 1548.78 1828.67 1548.04 L1828.67 1543.34 Q1830.76 1544.47 1832.98 1545.03 Q1835.2 1545.58 1837.68 1545.58 Q1841.68 1545.58 1844.02 1543.48 Q1846.36 1541.37 1846.36 1537.76 Q1846.36 1534.15 1844.02 1532.04 Q1841.68 1529.94 1837.68 1529.94 Q1835.8 1529.94 1833.93 1530.35 Q1832.08 1530.77 1830.13 1531.65 L1830.13 1514.29 Z" fill="#000000" fill-rule="nonzero" fill-opacity="1"></path><path clip-path="url(#clip860)" d="M2286.1 1544.91 L2293.74 1544.91 L2293.74 1518.55 L2285.43 1520.21 L2285.43 1515.95 L2293.69 1514.29 L2298.37 1514.29 L2298.37 1544.91 L2306 1544.91 L2306 1548.85 L2286.1 1548.85 L2286.1 1544.91 Z" fill="#000000" fill-rule="nonzero" fill-opacity="1"></path><path clip-path="url(#clip860)" d="M2315.45 1542.97 L2320.33 1542.97 L2320.33 1548.85 L2315.45 1548.85 L2315.45 1542.97 Z" fill="#000000" fill-rule="nonzero" fill-opacity="1"></path><path clip-path="url(#clip860)" d="M2340.52 1517.37 Q2336.91 1517.37 2335.08 1520.93 Q2333.27 1524.47 2333.27 1531.6 Q2333.27 1538.71 2335.08 1542.27 Q2336.91 1545.82 2340.52 1545.82 Q2344.15 1545.82 2345.96 1542.27 Q2347.79 1538.71 2347.79 1531.6 Q2347.79 1524.47 2345.96 1520.93 Q2344.15 1517.37 2340.52 1517.37 M2340.52 1513.66 Q2346.33 1513.66 2349.38 1518.27 Q2352.46 1522.85 2352.46 1531.6 Q2352.46 1540.33 2349.38 1544.94 Q2346.33 1549.52 2340.52 1549.52 Q2334.71 1549.52 2331.63 1544.94 Q2328.57 1540.33 2328.57 1531.6 Q2328.57 1522.85 2331.63 1518.27 Q2334.71 1513.66 2340.52 1513.66 Z" fill="#000000" fill-rule="nonzero" fill-opacity="1"></path><path clip-path="url(#clip860)" d="M2370.68 1517.37 Q2367.07 1517.37 2365.24 1520.93 Q2363.43 1524.47 2363.43 1531.6 Q2363.43 1538.71 2365.24 1542.27 Q2367.07 1545.82 2370.68 1545.82 Q2374.31 1545.82 2376.12 1542.27 Q2377.95 1538.71 2377.95 1531.6 Q2377.95 1524.47 2376.12 1520.93 Q2374.31 1517.37 2370.68 1517.37 M2370.68 1513.66 Q2376.49 1513.66 2379.55 1518.27 Q2382.62 1522.85 2382.62 1531.6 Q2382.62 1540.33 2379.55 1544.94 Q2376.49 1549.52 2370.68 1549.52 Q2364.87 1549.52 2361.79 1544.94 Q2358.74 1540.33 2358.74 1531.6 Q2358.74 1522.85 2361.79 1518.27 Q2364.87 1513.66 2370.68 1513.66 Z" fill="#000000" fill-rule="nonzero" fill-opacity="1"></path><polyline clip-path="url(#clip862)" style="stroke:#000000; stroke-linecap:round; stroke-linejoin:round; stroke-width:2; stroke-opacity:0.1; fill:none" points="186.76,1291.78 2352.76,1291.78 "></polyline>
<polyline clip-path="url(#clip862)" style="stroke:#000000; stroke-linecap:round; stroke-linejoin:round; stroke-width:2; stroke-opacity:0.1; fill:none" points="186.76,983.9 2352.76,983.9 "></polyline>
<polyline clip-path="url(#clip862)" style="stroke:#000000; stroke-linecap:round; stroke-linejoin:round; stroke-width:2; stroke-opacity:0.1; fill:none" points="186.76,676.022 2352.76,676.022 "></polyline>
<polyline clip-path="url(#clip862)" style="stroke:#000000; stroke-linecap:round; stroke-linejoin:round; stroke-width:2; stroke-opacity:0.1; fill:none" points="186.76,368.145 2352.76,368.145 "></polyline>
<polyline clip-path="url(#clip862)" style="stroke:#000000; stroke-linecap:round; stroke-linejoin:round; stroke-width:2; stroke-opacity:0.1; fill:none" points="186.76,60.2673 2352.76,60.2673 "></polyline>
<polyline clip-path="url(#clip860)" style="stroke:#000000; stroke-linecap:round; stroke-linejoin:round; stroke-width:4; stroke-opacity:1; fill:none" points="186.76,1486.45 186.76,47.2441 "></polyline>
<polyline clip-path="url(#clip860)" style="stroke:#000000; stroke-linecap:round; stroke-linejoin:round; stroke-width:4; stroke-opacity:1; fill:none" points="186.76,1291.78 205.658,1291.78 "></polyline>
<polyline clip-path="url(#clip860)" style="stroke:#000000; stroke-linecap:round; stroke-linejoin:round; stroke-width:4; stroke-opacity:1; fill:none" points="186.76,983.9 205.658,983.9 "></polyline>
<polyline clip-path="url(#clip860)" style="stroke:#000000; stroke-linecap:round; stroke-linejoin:round; stroke-width:4; stroke-opacity:1; fill:none" points="186.76,676.022 205.658,676.022 "></polyline>
<polyline clip-path="url(#clip860)" style="stroke:#000000; stroke-linecap:round; stroke-linejoin:round; stroke-width:4; stroke-opacity:1; fill:none" points="186.76,368.145 205.658,368.145 "></polyline>
<polyline clip-path="url(#clip860)" style="stroke:#000000; stroke-linecap:round; stroke-linejoin:round; stroke-width:4; stroke-opacity:1; fill:none" points="186.76,60.2673 205.658,60.2673 "></polyline>
<path clip-path="url(#clip860)" d="M65.0198 1277.58 Q61.4087 1277.58 59.58 1281.14 Q57.7745 1284.68 57.7745 1291.81 Q57.7745 1298.92 59.58 1302.48 Q61.4087 1306.02 65.0198 1306.02 Q68.6541 1306.02 70.4596 1302.48 Q72.2883 1298.92 72.2883 1291.81 Q72.2883 1284.68 70.4596 1281.14 Q68.6541 1277.58 65.0198 1277.58 M65.0198 1273.87 Q70.83 1273.87 73.8855 1278.48 Q76.9642 1283.06 76.9642 1291.81 Q76.9642 1300.54 73.8855 1305.14 Q70.83 1309.73 65.0198 1309.73 Q59.2097 1309.73 56.131 1305.14 Q53.0754 1300.54 53.0754 1291.81 Q53.0754 1283.06 56.131 1278.48 Q59.2097 1273.87 65.0198 1273.87 Z" fill="#000000" fill-rule="nonzero" fill-opacity="1"></path><path clip-path="url(#clip860)" d="M85.1818 1303.18 L90.066 1303.18 L90.066 1309.06 L85.1818 1309.06 L85.1818 1303.18 Z" fill="#000000" fill-rule="nonzero" fill-opacity="1"></path><path clip-path="url(#clip860)" d="M110.251 1277.58 Q106.64 1277.58 104.811 1281.14 Q103.006 1284.68 103.006 1291.81 Q103.006 1298.92 104.811 1302.48 Q106.64 1306.02 110.251 1306.02 Q113.885 1306.02 115.691 1302.48 Q117.52 1298.92 117.52 1291.81 Q117.52 1284.68 115.691 1281.14 Q113.885 1277.58 110.251 1277.58 M110.251 1273.87 Q116.061 1273.87 119.117 1278.48 Q122.195 1283.06 122.195 1291.81 Q122.195 1300.54 119.117 1305.14 Q116.061 1309.73 110.251 1309.73 Q104.441 1309.73 101.362 1305.14 Q98.3067 1300.54 98.3067 1291.81 Q98.3067 1283.06 101.362 1278.48 Q104.441 1273.87 110.251 1273.87 Z" fill="#000000" fill-rule="nonzero" fill-opacity="1"></path><path clip-path="url(#clip860)" d="M134.441 1305.12 L150.76 1305.12 L150.76 1309.06 L128.816 1309.06 L128.816 1305.12 Q131.478 1302.37 136.061 1297.74 Q140.668 1293.08 141.848 1291.74 Q144.093 1289.22 144.973 1287.48 Q145.876 1285.72 145.876 1284.03 Q145.876 1281.28 143.931 1279.54 Q142.01 1277.81 138.908 1277.81 Q136.709 1277.81 134.256 1278.57 Q131.825 1279.33 129.047 1280.89 L129.047 1276.16 Q131.871 1275.03 134.325 1274.45 Q136.779 1273.87 138.816 1273.87 Q144.186 1273.87 147.38 1276.56 Q150.575 1279.24 150.575 1283.73 Q150.575 1285.86 149.765 1287.78 Q148.978 1289.68 146.871 1292.27 Q146.293 1292.95 143.191 1296.16 Q140.089 1299.36 134.441 1305.12 Z" fill="#000000" fill-rule="nonzero" fill-opacity="1"></path><path clip-path="url(#clip860)" d="M62.9365 969.698 Q59.3254 969.698 57.4967 973.263 Q55.6912 976.805 55.6912 983.934 Q55.6912 991.041 57.4967 994.606 Q59.3254 998.147 62.9365 998.147 Q66.5707 998.147 68.3763 994.606 Q70.205 991.041 70.205 983.934 Q70.205 976.805 68.3763 973.263 Q66.5707 969.698 62.9365 969.698 M62.9365 965.995 Q68.7467 965.995 71.8022 970.601 Q74.8809 975.184 74.8809 983.934 Q74.8809 992.661 71.8022 997.268 Q68.7467 1001.85 62.9365 1001.85 Q57.1264 1001.85 54.0477 997.268 Q50.9921 992.661 50.9921 983.934 Q50.9921 975.184 54.0477 970.601 Q57.1264 965.995 62.9365 965.995 Z" fill="#000000" fill-rule="nonzero" fill-opacity="1"></path><path clip-path="url(#clip860)" d="M83.0984 995.3 L87.9827 995.3 L87.9827 1001.18 L83.0984 1001.18 L83.0984 995.3 Z" fill="#000000" fill-rule="nonzero" fill-opacity="1"></path><path clip-path="url(#clip860)" d="M108.168 969.698 Q104.557 969.698 102.728 973.263 Q100.922 976.805 100.922 983.934 Q100.922 991.041 102.728 994.606 Q104.557 998.147 108.168 998.147 Q111.802 998.147 113.608 994.606 Q115.436 991.041 115.436 983.934 Q115.436 976.805 113.608 973.263 Q111.802 969.698 108.168 969.698 M108.168 965.995 Q113.978 965.995 117.033 970.601 Q120.112 975.184 120.112 983.934 Q120.112 992.661 117.033 997.268 Q113.978 1001.85 108.168 1001.85 Q102.358 1001.85 99.2789 997.268 Q96.2234 992.661 96.2234 983.934 Q96.2234 975.184 99.2789 970.601 Q102.358 965.995 108.168 965.995 Z" fill="#000000" fill-rule="nonzero" fill-opacity="1"></path><path clip-path="url(#clip860)" d="M141.177 970.694 L129.371 989.143 L141.177 989.143 L141.177 970.694 M139.95 966.62 L145.83 966.62 L145.83 989.143 L150.76 989.143 L150.76 993.031 L145.83 993.031 L145.83 1001.18 L141.177 1001.18 L141.177 993.031 L125.575 993.031 L125.575 988.518 L139.95 966.62 Z" fill="#000000" fill-rule="nonzero" fill-opacity="1"></path><path clip-path="url(#clip860)" d="M63.2606 661.821 Q59.6495 661.821 57.8208 665.386 Q56.0152 668.927 56.0152 676.057 Q56.0152 683.163 57.8208 686.728 Q59.6495 690.27 63.2606 690.27 Q66.8948 690.27 68.7004 686.728 Q70.5291 683.163 70.5291 676.057 Q70.5291 668.927 68.7004 665.386 Q66.8948 661.821 63.2606 661.821 M63.2606 658.117 Q69.0707 658.117 72.1263 662.724 Q75.205 667.307 75.205 676.057 Q75.205 684.784 72.1263 689.39 Q69.0707 693.973 63.2606 693.973 Q57.4504 693.973 54.3717 689.39 Q51.3162 684.784 51.3162 676.057 Q51.3162 667.307 54.3717 662.724 Q57.4504 658.117 63.2606 658.117 Z" fill="#000000" fill-rule="nonzero" fill-opacity="1"></path><path clip-path="url(#clip860)" d="M83.4225 687.423 L88.3067 687.423 L88.3067 693.302 L83.4225 693.302 L83.4225 687.423 Z" fill="#000000" fill-rule="nonzero" fill-opacity="1"></path><path clip-path="url(#clip860)" d="M108.492 661.821 Q104.881 661.821 103.052 665.386 Q101.246 668.927 101.246 676.057 Q101.246 683.163 103.052 686.728 Q104.881 690.27 108.492 690.27 Q112.126 690.27 113.932 686.728 Q115.76 683.163 115.76 676.057 Q115.76 668.927 113.932 665.386 Q112.126 661.821 108.492 661.821 M108.492 658.117 Q114.302 658.117 117.358 662.724 Q120.436 667.307 120.436 676.057 Q120.436 684.784 117.358 689.39 Q114.302 693.973 108.492 693.973 Q102.682 693.973 99.603 689.39 Q96.5474 684.784 96.5474 676.057 Q96.5474 667.307 99.603 662.724 Q102.682 658.117 108.492 658.117 Z" fill="#000000" fill-rule="nonzero" fill-opacity="1"></path><path clip-path="url(#clip860)" d="M139.232 674.159 Q136.084 674.159 134.232 676.311 Q132.404 678.464 132.404 682.214 Q132.404 685.941 134.232 688.117 Q136.084 690.27 139.232 690.27 Q142.381 690.27 144.209 688.117 Q146.061 685.941 146.061 682.214 Q146.061 678.464 144.209 676.311 Q142.381 674.159 139.232 674.159 M148.515 659.506 L148.515 663.765 Q146.756 662.932 144.95 662.492 Q143.168 662.052 141.408 662.052 Q136.779 662.052 134.325 665.177 Q131.894 668.302 131.547 674.622 Q132.913 672.608 134.973 671.543 Q137.033 670.455 139.51 670.455 Q144.718 670.455 147.728 673.626 Q150.76 676.774 150.76 682.214 Q150.76 687.538 147.612 690.756 Q144.464 693.973 139.232 693.973 Q133.237 693.973 130.066 689.39 Q126.894 684.784 126.894 676.057 Q126.894 667.862 130.783 663.001 Q134.672 658.117 141.223 658.117 Q142.982 658.117 144.765 658.464 Q146.57 658.812 148.515 659.506 Z" fill="#000000" fill-rule="nonzero" fill-opacity="1"></path><path clip-path="url(#clip860)" d="M63.5152 353.943 Q59.9041 353.943 58.0754 357.508 Q56.2699 361.05 56.2699 368.179 Q56.2699 375.286 58.0754 378.851 Q59.9041 382.392 63.5152 382.392 Q67.1494 382.392 68.955 378.851 Q70.7837 375.286 70.7837 368.179 Q70.7837 361.05 68.955 357.508 Q67.1494 353.943 63.5152 353.943 M63.5152 350.24 Q69.3254 350.24 72.3809 354.846 Q75.4596 359.429 75.4596 368.179 Q75.4596 376.906 72.3809 381.513 Q69.3254 386.096 63.5152 386.096 Q57.7051 386.096 54.6264 381.513 Q51.5708 376.906 51.5708 368.179 Q51.5708 359.429 54.6264 354.846 Q57.7051 350.24 63.5152 350.24 Z" fill="#000000" fill-rule="nonzero" fill-opacity="1"></path><path clip-path="url(#clip860)" d="M83.6771 379.545 L88.5614 379.545 L88.5614 385.425 L83.6771 385.425 L83.6771 379.545 Z" fill="#000000" fill-rule="nonzero" fill-opacity="1"></path><path clip-path="url(#clip860)" d="M108.746 353.943 Q105.135 353.943 103.307 357.508 Q101.501 361.05 101.501 368.179 Q101.501 375.286 103.307 378.851 Q105.135 382.392 108.746 382.392 Q112.381 382.392 114.186 378.851 Q116.015 375.286 116.015 368.179 Q116.015 361.05 114.186 357.508 Q112.381 353.943 108.746 353.943 M108.746 350.24 Q114.557 350.24 117.612 354.846 Q120.691 359.429 120.691 368.179 Q120.691 376.906 117.612 381.513 Q114.557 386.096 108.746 386.096 Q102.936 386.096 99.8576 381.513 Q96.8021 376.906 96.8021 368.179 Q96.8021 359.429 99.8576 354.846 Q102.936 350.24 108.746 350.24 Z" fill="#000000" fill-rule="nonzero" fill-opacity="1"></path><path clip-path="url(#clip860)" d="M138.908 369.013 Q135.575 369.013 133.654 370.795 Q131.756 372.578 131.756 375.703 Q131.756 378.828 133.654 380.61 Q135.575 382.392 138.908 382.392 Q142.242 382.392 144.163 380.61 Q146.084 378.804 146.084 375.703 Q146.084 372.578 144.163 370.795 Q142.265 369.013 138.908 369.013 M134.232 367.022 Q131.223 366.281 129.533 364.221 Q127.867 362.161 127.867 359.198 Q127.867 355.055 130.807 352.647 Q133.769 350.24 138.908 350.24 Q144.07 350.24 147.01 352.647 Q149.95 355.055 149.95 359.198 Q149.95 362.161 148.26 364.221 Q146.593 366.281 143.607 367.022 Q146.987 367.809 148.862 370.101 Q150.76 372.392 150.76 375.703 Q150.76 380.726 147.681 383.411 Q144.626 386.096 138.908 386.096 Q133.191 386.096 130.112 383.411 Q127.057 380.726 127.057 375.703 Q127.057 372.392 128.955 370.101 Q130.853 367.809 134.232 367.022 M132.519 359.638 Q132.519 362.323 134.186 363.828 Q135.876 365.332 138.908 365.332 Q141.918 365.332 143.607 363.828 Q145.32 362.323 145.32 359.638 Q145.32 356.953 143.607 355.448 Q141.918 353.943 138.908 353.943 Q135.876 353.943 134.186 355.448 Q132.519 356.953 132.519 359.638 Z" fill="#000000" fill-rule="nonzero" fill-opacity="1"></path><path clip-path="url(#clip860)" d="M63.4226 46.066 Q59.8115 46.066 57.9828 49.6308 Q56.1773 53.1724 56.1773 60.302 Q56.1773 67.4085 57.9828 70.9733 Q59.8115 74.5149 63.4226 74.5149 Q67.0569 74.5149 68.8624 70.9733 Q70.6911 67.4085 70.6911 60.302 Q70.6911 53.1724 68.8624 49.6308 Q67.0569 46.066 63.4226 46.066 M63.4226 42.3623 Q69.2328 42.3623 72.2883 46.9688 Q75.367 51.5521 75.367 60.302 Q75.367 69.0288 72.2883 73.6353 Q69.2328 78.2186 63.4226 78.2186 Q57.6125 78.2186 54.5338 73.6353 Q51.4782 69.0288 51.4782 60.302 Q51.4782 51.5521 54.5338 46.9688 Q57.6125 42.3623 63.4226 42.3623 Z" fill="#000000" fill-rule="nonzero" fill-opacity="1"></path><path clip-path="url(#clip860)" d="M83.5845 71.6677 L88.4688 71.6677 L88.4688 77.5473 L83.5845 77.5473 L83.5845 71.6677 Z" fill="#000000" fill-rule="nonzero" fill-opacity="1"></path><path clip-path="url(#clip860)" d="M99.4641 73.6121 L107.103 73.6121 L107.103 47.2465 L98.7928 48.9132 L98.7928 44.654 L107.057 42.9873 L111.733 42.9873 L111.733 73.6121 L119.371 73.6121 L119.371 77.5473 L99.4641 77.5473 L99.4641 73.6121 Z" fill="#000000" fill-rule="nonzero" fill-opacity="1"></path><path clip-path="url(#clip860)" d="M138.816 46.066 Q135.205 46.066 133.376 49.6308 Q131.57 53.1724 131.57 60.302 Q131.57 67.4085 133.376 70.9733 Q135.205 74.5149 138.816 74.5149 Q142.45 74.5149 144.256 70.9733 Q146.084 67.4085 146.084 60.302 Q146.084 53.1724 144.256 49.6308 Q142.45 46.066 138.816 46.066 M138.816 42.3623 Q144.626 42.3623 147.681 46.9688 Q150.76 51.5521 150.76 60.302 Q150.76 69.0288 147.681 73.6353 Q144.626 78.2186 138.816 78.2186 Q133.006 78.2186 129.927 73.6353 Q126.871 69.0288 126.871 60.302 Q126.871 51.5521 129.927 46.9688 Q133.006 42.3623 138.816 42.3623 Z" fill="#000000" fill-rule="nonzero" fill-opacity="1"></path><polyline clip-path="url(#clip862)" style="stroke:#009af9; stroke-linecap:round; stroke-linejoin:round; stroke-width:4; stroke-opacity:1; fill:none" points="248.062,87.9763 333.203,143.394 418.345,198.812 503.486,254.23 588.627,309.648 673.769,365.066 758.91,420.484 844.051,475.902 929.193,531.32 1014.33,586.738 1099.48,642.156 1184.62,697.574 1269.76,752.992 1354.9,808.409 1440.04,863.827 1525.18,919.245 1610.32,1291.78 1695.46,1445.72 1780.61,1445.72 1865.75,1445.72 1950.89,1445.72 2036.03,1445.72 2121.17,1445.72 2206.31,1445.72 2291.45,1445.72 "></polyline>
<polyline clip-path="url(#clip862)" style="stroke:#e26f46; stroke-linecap:round; stroke-linejoin:round; stroke-width:4; stroke-opacity:1; fill:none" points="248.062,87.9763 261.365,96.6355 384.376,176.703 458.301,224.819 520.803,265.502 588.698,309.694 651.291,350.436 718.398,394.115 796.147,444.721 865.241,489.694 925.831,529.132 991.89,572.129 1058.34,615.382 1131.81,663.204 1201.72,708.705 1274.4,756.015 1335.59,795.84 1410.29,844.463 1478.72,889.004 1510.32,909.572 1541.92,930.141 1557.93,940.559 1573.93,950.976 1589.94,961.394 1605.94,971.812 1610.43,974.73 1614.91,977.649 1617.15,979.109 1619.4,980.568 1620.52,981.298 1621.64,982.027 1622.2,982.392 1622.76,982.757 1623.32,983.122 1623.88,983.487 1624.44,983.852 1625,1445.72 1625.56,1445.72 1626.12,1445.72 1627.24,1445.72 1628.36,1445.72 1630.61,1445.72 1632.85,1445.72 1637.33,1445.72 1641.82,1445.72 1650.79,1445.72 1659.75,1445.72 1668.72,1445.72 1677.69,1445.72 1710.2,1445.72 1742.71,1445.72 1817.15,1445.72 1886.07,1445.72 1954.02,1445.72 2020,1445.72 2087.63,1445.72 2161.73,1445.72 2269.37,1445.72 2291.45,1445.72 "></polyline>
<path clip-path="url(#clip860)" d="M2011.53 250.738 L2280.56 250.738 L2280.56 95.2176 L2011.53 95.2176  Z" fill="#ffffff" fill-rule="evenodd" fill-opacity="1"></path>
<polyline clip-path="url(#clip860)" style="stroke:#000000; stroke-linecap:round; stroke-linejoin:round; stroke-width:4; stroke-opacity:1; fill:none" points="2011.53,250.738 2280.56,250.738 2280.56,95.2176 2011.53,95.2176 2011.53,250.738 "></polyline>
<polyline clip-path="url(#clip860)" style="stroke:#009af9; stroke-linecap:round; stroke-linejoin:round; stroke-width:4; stroke-opacity:1; fill:none" points="2035.59,147.058 2179.99,147.058 "></polyline>
<path clip-path="url(#clip860)" d="M2217.9 166.745 Q2216.1 171.375 2214.38 172.787 Q2212.67 174.199 2209.8 174.199 L2206.4 174.199 L2206.4 170.634 L2208.9 170.634 Q2210.66 170.634 2211.63 169.8 Q2212.6 168.967 2213.78 165.865 L2214.55 163.921 L2204.06 138.412 L2208.57 138.412 L2216.67 158.689 L2224.78 138.412 L2229.29 138.412 L2217.9 166.745 Z" fill="#000000" fill-rule="nonzero" fill-opacity="1"></path><path clip-path="url(#clip860)" d="M2236.58 160.402 L2244.22 160.402 L2244.22 134.037 L2235.91 135.703 L2235.91 131.444 L2244.17 129.778 L2248.85 129.778 L2248.85 160.402 L2256.49 160.402 L2256.49 164.338 L2236.58 164.338 L2236.58 160.402 Z" fill="#000000" fill-rule="nonzero" fill-opacity="1"></path><polyline clip-path="url(#clip860)" style="stroke:#e26f46; stroke-linecap:round; stroke-linejoin:round; stroke-width:4; stroke-opacity:1; fill:none" points="2035.59,198.898 2179.99,198.898 "></polyline>
<path clip-path="url(#clip860)" d="M2217.9 218.585 Q2216.1 223.215 2214.38 224.627 Q2212.67 226.039 2209.8 226.039 L2206.4 226.039 L2206.4 222.474 L2208.9 222.474 Q2210.66 222.474 2211.63 221.64 Q2212.6 220.807 2213.78 217.705 L2214.55 215.761 L2204.06 190.252 L2208.57 190.252 L2216.67 210.529 L2224.78 190.252 L2229.29 190.252 L2217.9 218.585 Z" fill="#000000" fill-rule="nonzero" fill-opacity="1"></path><path clip-path="url(#clip860)" d="M2239.8 212.242 L2256.12 212.242 L2256.12 216.178 L2234.17 216.178 L2234.17 212.242 Q2236.84 209.488 2241.42 204.858 Q2246.03 200.205 2247.21 198.863 Q2249.45 196.34 2250.33 194.604 Q2251.23 192.844 2251.23 191.155 Q2251.23 188.4 2249.29 186.664 Q2247.37 184.928 2244.27 184.928 Q2242.07 184.928 2239.61 185.692 Q2237.18 186.455 2234.41 188.006 L2234.41 183.284 Q2237.23 182.15 2239.68 181.571 Q2242.14 180.993 2244.17 180.993 Q2249.55 180.993 2252.74 183.678 Q2255.93 186.363 2255.93 190.854 Q2255.93 192.983 2255.12 194.905 Q2254.34 196.803 2252.23 199.395 Q2251.65 200.067 2248.55 203.284 Q2245.45 206.479 2239.8 212.242 Z" fill="#000000" fill-rule="nonzero" fill-opacity="1"></path></svg>