<svg xmlns="http://www.w3.org/2000/svg" xmlns:xlink="http://www.w3.org/1999/xlink" width="600" height="400" viewBox="0 0 2400 1600">
<defs>
  <clipPath id="clip820">
    <rect x="0" y="0" width="2400" height="1600"></rect>
  </clipPath>
</defs>
<path clip-path="url(#clip820)" d="M0 1600 L2400 1600 L2400 0 L0 0  Z" fill="#ffffff" fill-rule="evenodd" fill-opacity="1"></path>
<defs>
  <clipPath id="clip821">
    <rect x="480" y="0" width="1681" height="1600"></rect>
  </clipPath>
</defs>
<path clip-path="url(#clip820)" d="M216.436 1486.45 L2352.76 1486.45 L2352.76 47.2441 L216.436 47.2441  Z" fill="#ffffff" fill-rule="evenodd" fill-opacity="1"></path>
<defs>
  <clipPath id="clip822">
    <rect x="216" y="47" width="2137" height="1440"></rect>
  </clipPath>
</defs>
<polyline clip-path="url(#clip822)" style="stroke:#000000; stroke-linecap:round; stroke-linejoin:round; stroke-width:2; stroke-opacity:0.1; fill:none" points="276.898,1486.45 276.898,47.2441 "></polyline>
<polyline clip-path="url(#clip822)" style="stroke:#000000; stroke-linecap:round; stroke-linejoin:round; stroke-width:2; stroke-opacity:0.1; fill:none" points="679.977,1486.45 679.977,47.2441 "></polyline>
<polyline clip-path="url(#clip822)" style="stroke:#000000; stroke-linecap:round; stroke-linejoin:round; stroke-width:2; stroke-opacity:0.1; fill:none" points="1083.06,1486.45 1083.06,47.2441 "></polyline>
<polyline clip-path="url(#clip822)" style="stroke:#000000; stroke-linecap:round; stroke-linejoin:round; stroke-width:2; stroke-opacity:0.1; fill:none" points="1486.14,1486.45 1486.14,47.2441 "></polyline>
<polyline clip-path="url(#clip822)" style="stroke:#000000; stroke-linecap:round; stroke-linejoin:round; stroke-width:2; stroke-opacity:0.1; fill:none" points="1889.21,1486.45 1889.21,47.2441 "></polyline>
<polyline clip-path="url(#clip822)" style="stroke:#000000; stroke-linecap:round; stroke-linejoin:round; stroke-width:2; stroke-opacity:0.1; fill:none" points="2292.29,1486.45 2292.29,47.2441 "></polyline>
<polyline clip-path="url(#clip820)" style="stroke:#000000; stroke-linecap:round; stroke-linejoin:round; stroke-width:4; stroke-opacity:1; fill:none" points="216.436,1486.45 2352.76,1486.45 "></polyline>
<polyline clip-path="url(#clip820)" style="stroke:#000000; stroke-linecap:round; stroke-linejoin:round; stroke-width:4; stroke-opacity:1; fill:none" points="276.898,1486.45 276.898,1467.55 "></polyline>
<polyline clip-path="url(#clip820)" style="stroke:#000000; stroke-linecap:round; stroke-linejoin:round; stroke-width:4; stroke-opacity:1; fill:none" points="679.977,1486.45 679.977,1467.55 "></polyline>
<polyline clip-path="url(#clip820)" style="stroke:#000000; stroke-linecap:round; stroke-linejoin:round; stroke-width:4; stroke-opacity:1; fill:none" points="1083.06,1486.45 1083.06,1467.55 "></polyline>
<polyline clip-path="url(#clip820)" style="stroke:#000000; stroke-linecap:round; stroke-linejoin:round; stroke-width:4; stroke-opacity:1; fill:none" points="1486.14,1486.45 1486.14,1467.55 "></polyline>
<polyline clip-path="url(#clip820)" style="stroke:#000000; stroke-linecap:round; stroke-linejoin:round; stroke-width:4; stroke-opacity:1; fill:none" points="1889.21,1486.45 1889.21,1467.55 "></polyline>
<polyline clip-path="url(#clip820)" style="stroke:#000000; stroke-linecap:round; stroke-linejoin:round; stroke-width:4; stroke-opacity:1; fill:none" points="2292.29,1486.45 2292.29,1467.55 "></polyline>
<path clip-path="url(#clip820)" d="M276.898 1517.37 Q273.287 1517.37 271.458 1520.93 Q269.652 1524.47 269.652 1531.6 Q269.652 1538.71 271.458 1542.27 Q273.287 1545.82 276.898 1545.82 Q280.532 1545.82 282.338 1542.27 Q284.166 1538.71 284.166 1531.6 Q284.166 1524.47 282.338 1520.93 Q280.532 1517.37 276.898 1517.37 M276.898 1513.66 Q282.708 1513.66 285.763 1518.27 Q288.842 1522.85 288.842 1531.6 Q288.842 1540.33 285.763 1544.94 Q282.708 1549.52 276.898 1549.52 Q271.088 1549.52 268.009 1544.94 Q264.953 1540.33 264.953 1531.6 Q264.953 1522.85 268.009 1518.27 Q271.088 1513.66 276.898 1513.66 Z" fill="#000000" fill-rule="nonzero" fill-opacity="1"></path><path clip-path="url(#clip820)" d="M654.665 1544.91 L662.303 1544.91 L662.303 1518.55 L653.993 1520.21 L653.993 1515.95 L662.257 1514.29 L666.933 1514.29 L666.933 1544.91 L674.572 1544.91 L674.572 1548.85 L654.665 1548.85 L654.665 1544.91 Z" fill="#000000" fill-rule="nonzero" fill-opacity="1"></path><path clip-path="url(#clip820)" d="M694.016 1517.37 Q690.405 1517.37 688.577 1520.93 Q686.771 1524.47 686.771 1531.6 Q686.771 1538.71 688.577 1542.27 Q690.405 1545.82 694.016 1545.82 Q697.651 1545.82 699.456 1542.27 Q701.285 1538.71 701.285 1531.6 Q701.285 1524.47 699.456 1520.93 Q697.651 1517.37 694.016 1517.37 M694.016 1513.66 Q699.826 1513.66 702.882 1518.27 Q705.961 1522.85 705.961 1531.6 Q705.961 1540.33 702.882 1544.94 Q699.826 1549.52 694.016 1549.52 Q688.206 1549.52 685.127 1544.94 Q682.072 1540.33 682.072 1531.6 Q682.072 1522.85 685.127 1518.27 Q688.206 1513.66 694.016 1513.66 Z" fill="#000000" fill-rule="nonzero" fill-opacity="1"></path><path clip-path="url(#clip820)" d="M1061.83 1544.91 L1078.15 1544.91 L1078.15 1548.85 L1056.2 1548.85 L1056.2 1544.91 Q1058.87 1542.16 1063.45 1537.53 Q1068.06 1532.88 1069.24 1531.53 Q1071.48 1529.01 1072.36 1527.27 Q1073.26 1525.51 1073.26 1523.82 Q1073.26 1521.07 1071.32 1519.33 Q1069.4 1517.6 1066.3 1517.6 Q1064.1 1517.6 1061.64 1518.36 Q1059.21 1519.13 1056.44 1520.68 L1056.44 1515.95 Q1059.26 1514.82 1061.71 1514.24 Q1064.17 1513.66 1066.2 1513.66 Q1071.57 1513.66 1074.77 1516.35 Q1077.96 1519.03 1077.96 1523.52 Q1077.96 1525.65 1077.15 1527.57 Q1076.37 1529.47 1074.26 1532.07 Q1073.68 1532.74 1070.58 1535.95 Q1067.48 1539.15 1061.83 1544.91 Z" fill="#000000" fill-rule="nonzero" fill-opacity="1"></path><path clip-path="url(#clip820)" d="M1097.96 1517.37 Q1094.35 1517.37 1092.52 1520.93 Q1090.72 1524.47 1090.72 1531.6 Q1090.72 1538.71 1092.52 1542.27 Q1094.35 1545.82 1097.96 1545.82 Q1101.6 1545.82 1103.4 1542.27 Q1105.23 1538.71 1105.23 1531.6 Q1105.23 1524.47 1103.4 1520.93 Q1101.6 1517.37 1097.96 1517.37 M1097.96 1513.66 Q1103.77 1513.66 1106.83 1518.27 Q1109.91 1522.85 1109.91 1531.6 Q1109.91 1540.33 1106.83 1544.94 Q1103.77 1549.52 1097.96 1549.52 Q1092.15 1549.52 1089.07 1544.94 Q1086.02 1540.33 1086.02 1531.6 Q1086.02 1522.85 1089.07 1518.27 Q1092.15 1513.66 1097.96 1513.66 Z" fill="#000000" fill-rule="nonzero" fill-opacity="1"></path><path clip-path="url(#clip820)" d="M1474.98 1530.21 Q1478.33 1530.93 1480.21 1533.2 Q1482.11 1535.47 1482.11 1538.8 Q1482.11 1543.92 1478.59 1546.72 Q1475.07 1549.52 1468.59 1549.52 Q1466.41 1549.52 1464.1 1549.08 Q1461.81 1548.66 1459.35 1547.81 L1459.35 1543.29 Q1461.3 1544.43 1463.61 1545.01 Q1465.93 1545.58 1468.45 1545.58 Q1472.85 1545.58 1475.14 1543.85 Q1477.46 1542.11 1477.46 1538.8 Q1477.46 1535.75 1475.3 1534.03 Q1473.17 1532.3 1469.35 1532.3 L1465.33 1532.3 L1465.33 1528.45 L1469.54 1528.45 Q1472.99 1528.45 1474.82 1527.09 Q1476.64 1525.7 1476.64 1523.11 Q1476.64 1520.45 1474.75 1519.03 Q1472.87 1517.6 1469.35 1517.6 Q1467.43 1517.6 1465.23 1518.01 Q1463.03 1518.43 1460.39 1519.31 L1460.39 1515.14 Q1463.06 1514.4 1465.37 1514.03 Q1467.71 1513.66 1469.77 1513.66 Q1475.09 1513.66 1478.2 1516.09 Q1481.3 1518.5 1481.3 1522.62 Q1481.3 1525.49 1479.65 1527.48 Q1478.01 1529.45 1474.98 1530.21 Z" fill="#000000" fill-rule="nonzero" fill-opacity="1"></path><path clip-path="url(#clip820)" d="M1500.97 1517.37 Q1497.36 1517.37 1495.53 1520.93 Q1493.73 1524.47 1493.73 1531.6 Q1493.73 1538.71 1495.53 1542.27 Q1497.36 1545.82 1500.97 1545.82 Q1504.61 1545.82 1506.41 1542.27 Q1508.24 1538.71 1508.24 1531.6 Q1508.24 1524.47 1506.41 1520.93 Q1504.61 1517.37 1500.97 1517.37 M1500.97 1513.66 Q1506.78 1513.66 1509.84 1518.27 Q1512.92 1522.85 1512.92 1531.6 Q1512.92 1540.33 1509.84 1544.94 Q1506.78 1549.52 1500.97 1549.52 Q1495.16 1549.52 1492.08 1544.94 Q1489.03 1540.33 1489.03 1531.6 Q1489.03 1522.85 1492.08 1518.27 Q1495.16 1513.66 1500.97 1513.66 Z" fill="#000000" fill-rule="nonzero" fill-opacity="1"></path><path clip-path="url(#clip820)" d="M1877.39 1518.36 L1865.58 1536.81 L1877.39 1536.81 L1877.39 1518.36 M1876.16 1514.29 L1882.04 1514.29 L1882.04 1536.81 L1886.97 1536.81 L1886.97 1540.7 L1882.04 1540.7 L1882.04 1548.85 L1877.39 1548.85 L1877.39 1540.7 L1861.78 1540.7 L1861.78 1536.19 L1876.16 1514.29 Z" fill="#000000" fill-rule="nonzero" fill-opacity="1"></path><path clip-path="url(#clip820)" d="M1904.7 1517.37 Q1901.09 1517.37 1899.26 1520.93 Q1897.46 1524.47 1897.46 1531.6 Q1897.46 1538.71 1899.26 1542.27 Q1901.09 1545.82 1904.7 1545.82 Q1908.34 1545.82 1910.14 1542.27 Q1911.97 1538.71 1911.97 1531.6 Q1911.97 1524.47 1910.14 1520.93 Q1908.34 1517.37 1904.7 1517.37 M1904.7 1513.66 Q1910.51 1513.66 1913.57 1518.27 Q1916.65 1522.85 1916.65 1531.6 Q1916.65 1540.33 1913.57 1544.94 Q1910.51 1549.52 1904.7 1549.52 Q1898.89 1549.52 1895.81 1544.94 Q1892.76 1540.33 1892.76 1531.6 Q1892.76 1522.85 1895.81 1518.27 Q1898.89 1513.66 1904.7 1513.66 Z" fill="#000000" fill-rule="nonzero" fill-opacity="1"></path><path clip-path="url(#clip820)" d="M2266.99 1514.29 L2285.35 1514.29 L2285.35 1518.22 L2271.28 1518.22 L2271.28 1526.7 Q2272.29 1526.35 2273.31 1526.19 Q2274.33 1526 2275.35 1526 Q2281.14 1526 2284.52 1529.17 Q2287.9 1532.34 2287.9 1537.76 Q2287.9 1543.34 2284.42 1546.44 Q2280.95 1549.52 2274.63 1549.52 Q2272.46 1549.52 2270.19 1549.15 Q2267.94 1548.78 2265.53 1548.04 L2265.53 1543.34 Q2267.62 1544.47 2269.84 1545.03 Q2272.06 1545.58 2274.54 1545.58 Q2278.54 1545.58 2280.88 1543.48 Q2283.22 1541.37 2283.22 1537.76 Q2283.22 1534.15 2280.88 1532.04 Q2278.54 1529.94 2274.54 1529.94 Q2272.66 1529.94 2270.79 1530.35 Q2268.94 1530.77 2266.99 1531.65 L2266.99 1514.29 Z" fill="#000000" fill-rule="nonzero" fill-opacity="1"></path><path clip-path="url(#clip820)" d="M2307.11 1517.37 Q2303.5 1517.37 2301.67 1520.93 Q2299.86 1524.47 2299.86 1531.6 Q2299.86 1538.71 2301.67 1542.27 Q2303.5 1545.82 2307.11 1545.82 Q2310.74 1545.82 2312.55 1542.27 Q2314.38 1538.71 2314.38 1531.6 Q2314.38 1524.47 2312.55 1520.93 Q2310.74 1517.37 2307.11 1517.37 M2307.11 1513.66 Q2312.92 1513.66 2315.97 1518.27 Q2319.05 1522.85 2319.05 1531.6 Q2319.05 1540.33 2315.97 1544.94 Q2312.92 1549.52 2307.11 1549.52 Q2301.3 1549.52 2298.22 1544.94 Q2295.16 1540.33 2295.16 1531.6 Q2295.16 1522.85 2298.22 1518.27 Q2301.3 1513.66 2307.11 1513.66 Z" fill="#000000" fill-rule="nonzero" fill-opacity="1"></path><polyline clip-path="url(#clip822)" style="stroke:#000000; stroke-linecap:round; stroke-linejoin:round; stroke-width:2; stroke-opacity:0.1; fill:none" points="216.436,1187.11 2352.76,1187.11 "></polyline>
<polyline clip-path="url(#clip822)" style="stroke:#000000; stroke-linecap:round; stroke-linejoin:round; stroke-width:2; stroke-opacity:0.1; fill:none" points="216.436,876.701 2352.76,876.701 "></polyline>
<polyline clip-path="url(#clip822)" style="stroke:#000000; stroke-linecap:round; stroke-linejoin:round; stroke-width:2; stroke-opacity:0.1; fill:none" points="216.436,566.292 2352.76,566.292 "></polyline>
<polyline clip-path="url(#clip822)" style="stroke:#000000; stroke-linecap:round; stroke-linejoin:round; stroke-width:2; stroke-opacity:0.1; fill:none" points="216.436,255.883 2352.76,255.883 "></polyline>
<polyline clip-path="url(#clip820)" style="stroke:#000000; stroke-linecap:round; stroke-linejoin:round; stroke-width:4; stroke-opacity:1; fill:none" points="216.436,1486.45 216.436,47.2441 "></polyline>
<polyline clip-path="url(#clip820)" style="stroke:#000000; stroke-linecap:round; stroke-linejoin:round; stroke-width:4; stroke-opacity:1; fill:none" points="216.436,1187.11 235.334,1187.11 "></polyline>
<polyline clip-path="url(#clip820)" style="stroke:#000000; stroke-linecap:round; stroke-linejoin:round; stroke-width:4; stroke-opacity:1; fill:none" points="216.436,876.701 235.334,876.701 "></polyline>
<polyline clip-path="url(#clip820)" style="stroke:#000000; stroke-linecap:round; stroke-linejoin:round; stroke-width:4; stroke-opacity:1; fill:none" points="216.436,566.292 235.334,566.292 "></polyline>
<polyline clip-path="url(#clip820)" style="stroke:#000000; stroke-linecap:round; stroke-linejoin:round; stroke-width:4; stroke-opacity:1; fill:none" points="216.436,255.883 235.334,255.883 "></polyline>
<path clip-path="url(#clip820)" d="M62.9365 1172.91 Q59.3254 1172.91 57.4967 1176.47 Q55.6912 1180.02 55.6912 1187.14 Q55.6912 1194.25 57.4967 1197.82 Q59.3254 1201.36 62.9365 1201.36 Q66.5707 1201.36 68.3763 1197.82 Q70.205 1194.25 70.205 1187.14 Q70.205 1180.02 68.3763 1176.47 Q66.5707 1172.91 62.9365 1172.91 M62.9365 1169.21 Q68.7467 1169.21 71.8022 1173.81 Q74.8809 1178.4 74.8809 1187.14 Q74.8809 1195.87 71.8022 1200.48 Q68.7467 1205.06 62.9365 1205.06 Q57.1264 1205.06 54.0477 1200.48 Q50.9921 1195.87 50.9921 1187.14 Q50.9921 1178.4 54.0477 1173.81 Q57.1264 1169.21 62.9365 1169.21 Z" fill="#000000" fill-rule="nonzero" fill-opacity="1"></path><path clip-path="url(#clip820)" d="M83.0984 1198.51 L87.9827 1198.51 L87.9827 1204.39 L83.0984 1204.39 L83.0984 1198.51 Z" fill="#000000" fill-rule="nonzero" fill-opacity="1"></path><path clip-path="url(#clip820)" d="M108.168 1172.91 Q104.557 1172.91 102.728 1176.47 Q100.922 1180.02 100.922 1187.14 Q100.922 1194.25 102.728 1197.82 Q104.557 1201.36 108.168 1201.36 Q111.802 1201.36 113.608 1197.82 Q115.436 1194.25 115.436 1187.14 Q115.436 1180.02 113.608 1176.47 Q111.802 1172.91 108.168 1172.91 M108.168 1169.21 Q113.978 1169.21 117.033 1173.81 Q120.112 1178.4 120.112 1187.14 Q120.112 1195.87 117.033 1200.48 Q113.978 1205.06 108.168 1205.06 Q102.358 1205.06 99.2789 1200.48 Q96.2234 1195.87 96.2234 1187.14 Q96.2234 1178.4 99.2789 1173.81 Q102.358 1169.21 108.168 1169.21 Z" fill="#000000" fill-rule="nonzero" fill-opacity="1"></path><path clip-path="url(#clip820)" d="M138.33 1172.91 Q134.719 1172.91 132.89 1176.47 Q131.084 1180.02 131.084 1187.14 Q131.084 1194.25 132.89 1197.82 Q134.719 1201.36 138.33 1201.36 Q141.964 1201.36 143.769 1197.82 Q145.598 1194.25 145.598 1187.14 Q145.598 1180.02 143.769 1176.47 Q141.964 1172.91 138.33 1172.91 M138.33 1169.21 Q144.14 1169.21 147.195 1173.81 Q150.274 1178.4 150.274 1187.14 Q150.274 1195.87 147.195 1200.48 Q144.14 1205.06 138.33 1205.06 Q132.519 1205.06 129.441 1200.48 Q126.385 1195.87 126.385 1187.14 Q126.385 1178.4 129.441 1173.81 Q132.519 1169.21 138.33 1169.21 Z" fill="#000000" fill-rule="nonzero" fill-opacity="1"></path><path clip-path="url(#clip820)" d="M168.491 1172.91 Q164.88 1172.91 163.052 1176.47 Q161.246 1180.02 161.246 1187.14 Q161.246 1194.25 163.052 1197.82 Q164.88 1201.36 168.491 1201.36 Q172.126 1201.36 173.931 1197.82 Q175.76 1194.25 175.76 1187.14 Q175.76 1180.02 173.931 1176.47 Q172.126 1172.91 168.491 1172.91 M168.491 1169.21 Q174.302 1169.21 177.357 1173.81 Q180.436 1178.4 180.436 1187.14 Q180.436 1195.87 177.357 1200.48 Q174.302 1205.06 168.491 1205.06 Q162.681 1205.06 159.603 1200.48 Q156.547 1195.87 156.547 1187.14 Q156.547 1178.4 159.603 1173.81 Q162.681 1169.21 168.491 1169.21 Z" fill="#000000" fill-rule="nonzero" fill-opacity="1"></path><path clip-path="url(#clip820)" d="M64.1634 862.5 Q60.5523 862.5 58.7236 866.065 Q56.918 869.606 56.918 876.736 Q56.918 883.842 58.7236 887.407 Q60.5523 890.949 64.1634 890.949 Q67.7976 890.949 69.6031 887.407 Q71.4318 883.842 71.4318 876.736 Q71.4318 869.606 69.6031 866.065 Q67.7976 862.5 64.1634 862.5 M64.1634 858.796 Q69.9735 858.796 73.029 863.403 Q76.1077 867.986 76.1077 876.736 Q76.1077 885.463 73.029 890.069 Q69.9735 894.652 64.1634 894.652 Q58.3532 894.652 55.2745 890.069 Q52.219 885.463 52.219 876.736 Q52.219 867.986 55.2745 863.403 Q58.3532 858.796 64.1634 858.796 Z" fill="#000000" fill-rule="nonzero" fill-opacity="1"></path><path clip-path="url(#clip820)" d="M84.3253 888.102 L89.2095 888.102 L89.2095 893.981 L84.3253 893.981 L84.3253 888.102 Z" fill="#000000" fill-rule="nonzero" fill-opacity="1"></path><path clip-path="url(#clip820)" d="M109.395 862.5 Q105.783 862.5 103.955 866.065 Q102.149 869.606 102.149 876.736 Q102.149 883.842 103.955 887.407 Q105.783 890.949 109.395 890.949 Q113.029 890.949 114.834 887.407 Q116.663 883.842 116.663 876.736 Q116.663 869.606 114.834 866.065 Q113.029 862.5 109.395 862.5 M109.395 858.796 Q115.205 858.796 118.26 863.403 Q121.339 867.986 121.339 876.736 Q121.339 885.463 118.26 890.069 Q115.205 894.652 109.395 894.652 Q103.584 894.652 100.506 890.069 Q97.4502 885.463 97.4502 876.736 Q97.4502 867.986 100.506 863.403 Q103.584 858.796 109.395 858.796 Z" fill="#000000" fill-rule="nonzero" fill-opacity="1"></path><path clip-path="url(#clip820)" d="M139.556 862.5 Q135.945 862.5 134.117 866.065 Q132.311 869.606 132.311 876.736 Q132.311 883.842 134.117 887.407 Q135.945 890.949 139.556 890.949 Q143.191 890.949 144.996 887.407 Q146.825 883.842 146.825 876.736 Q146.825 869.606 144.996 866.065 Q143.191 862.5 139.556 862.5 M139.556 858.796 Q145.367 858.796 148.422 863.403 Q151.501 867.986 151.501 876.736 Q151.501 885.463 148.422 890.069 Q145.367 894.652 139.556 894.652 Q133.746 894.652 130.668 890.069 Q127.612 885.463 127.612 876.736 Q127.612 867.986 130.668 863.403 Q133.746 858.796 139.556 858.796 Z" fill="#000000" fill-rule="nonzero" fill-opacity="1"></path><path clip-path="url(#clip820)" d="M160.529 890.046 L168.167 890.046 L168.167 863.68 L159.857 865.347 L159.857 861.088 L168.121 859.421 L172.797 859.421 L172.797 890.046 L180.436 890.046 L180.436 893.981 L160.529 893.981 L160.529 890.046 Z" fill="#000000" fill-rule="nonzero" fill-opacity="1"></path><path clip-path="url(#clip820)" d="M64.5337 552.091 Q60.9226 552.091 59.0939 555.656 Q57.2884 559.197 57.2884 566.327 Q57.2884 573.433 59.0939 576.998 Q60.9226 580.54 64.5337 580.54 Q68.168 580.54 69.9735 576.998 Q71.8022 573.433 71.8022 566.327 Q71.8022 559.197 69.9735 555.656 Q68.168 552.091 64.5337 552.091 M64.5337 548.387 Q70.3439 548.387 73.3994 552.994 Q76.4781 557.577 76.4781 566.327 Q76.4781 575.054 73.3994 579.66 Q70.3439 584.243 64.5337 584.243 Q58.7236 584.243 55.6449 579.66 Q52.5893 575.054 52.5893 566.327 Q52.5893 557.577 55.6449 552.994 Q58.7236 548.387 64.5337 548.387 Z" fill="#000000" fill-rule="nonzero" fill-opacity="1"></path><path clip-path="url(#clip820)" d="M84.6956 577.693 L89.5799 577.693 L89.5799 583.572 L84.6956 583.572 L84.6956 577.693 Z" fill="#000000" fill-rule="nonzero" fill-opacity="1"></path><path clip-path="url(#clip820)" d="M109.765 552.091 Q106.154 552.091 104.325 555.656 Q102.52 559.197 102.52 566.327 Q102.52 573.433 104.325 576.998 Q106.154 580.54 109.765 580.54 Q113.399 580.54 115.205 576.998 Q117.033 573.433 117.033 566.327 Q117.033 559.197 115.205 555.656 Q113.399 552.091 109.765 552.091 M109.765 548.387 Q115.575 548.387 118.631 552.994 Q121.709 557.577 121.709 566.327 Q121.709 575.054 118.631 579.66 Q115.575 584.243 109.765 584.243 Q103.955 584.243 100.876 579.66 Q97.8206 575.054 97.8206 566.327 Q97.8206 557.577 100.876 552.994 Q103.955 548.387 109.765 548.387 Z" fill="#000000" fill-rule="nonzero" fill-opacity="1"></path><path clip-path="url(#clip820)" d="M139.927 552.091 Q136.316 552.091 134.487 555.656 Q132.682 559.197 132.682 566.327 Q132.682 573.433 134.487 576.998 Q136.316 580.54 139.927 580.54 Q143.561 580.54 145.367 576.998 Q147.195 573.433 147.195 566.327 Q147.195 559.197 145.367 555.656 Q143.561 552.091 139.927 552.091 M139.927 548.387 Q145.737 548.387 148.793 552.994 Q151.871 557.577 151.871 566.327 Q151.871 575.054 148.793 579.66 Q145.737 584.243 139.927 584.243 Q134.117 584.243 131.038 579.66 Q127.982 575.054 127.982 566.327 Q127.982 557.577 131.038 552.994 Q134.117 548.387 139.927 548.387 Z" fill="#000000" fill-rule="nonzero" fill-opacity="1"></path><path clip-path="url(#clip820)" d="M164.117 579.637 L180.436 579.637 L180.436 583.572 L158.492 583.572 L158.492 579.637 Q161.154 576.882 165.737 572.253 Q170.343 567.6 171.524 566.257 Q173.769 563.734 174.649 561.998 Q175.552 560.239 175.552 558.549 Q175.552 555.795 173.607 554.058 Q171.686 552.322 168.584 552.322 Q166.385 552.322 163.931 553.086 Q161.501 553.85 158.723 555.401 L158.723 550.679 Q161.547 549.545 164.001 548.966 Q166.454 548.387 168.491 548.387 Q173.862 548.387 177.056 551.072 Q180.251 553.757 180.251 558.248 Q180.251 560.378 179.441 562.299 Q178.653 564.197 176.547 566.79 Q175.968 567.461 172.866 570.679 Q169.765 573.873 164.117 579.637 Z" fill="#000000" fill-rule="nonzero" fill-opacity="1"></path><path clip-path="url(#clip820)" d="M63.5847 241.682 Q59.9736 241.682 58.1449 245.247 Q56.3393 248.788 56.3393 255.918 Q56.3393 263.024 58.1449 266.589 Q59.9736 270.131 63.5847 270.131 Q67.2189 270.131 69.0244 266.589 Q70.8531 263.024 70.8531 255.918 Q70.8531 248.788 69.0244 245.247 Q67.2189 241.682 63.5847 241.682 M63.5847 237.978 Q69.3948 237.978 72.4503 242.585 Q75.529 247.168 75.529 255.918 Q75.529 264.645 72.4503 269.251 Q69.3948 273.834 63.5847 273.834 Q57.7745 273.834 54.6958 269.251 Q51.6403 264.645 51.6403 255.918 Q51.6403 247.168 54.6958 242.585 Q57.7745 237.978 63.5847 237.978 Z" fill="#000000" fill-rule="nonzero" fill-opacity="1"></path><path clip-path="url(#clip820)" d="M83.7466 267.283 L88.6308 267.283 L88.6308 273.163 L83.7466 273.163 L83.7466 267.283 Z" fill="#000000" fill-rule="nonzero" fill-opacity="1"></path><path clip-path="url(#clip820)" d="M108.816 241.682 Q105.205 241.682 103.376 245.247 Q101.571 248.788 101.571 255.918 Q101.571 263.024 103.376 266.589 Q105.205 270.131 108.816 270.131 Q112.45 270.131 114.256 266.589 Q116.084 263.024 116.084 255.918 Q116.084 248.788 114.256 245.247 Q112.45 241.682 108.816 241.682 M108.816 237.978 Q114.626 237.978 117.682 242.585 Q120.76 247.168 120.76 255.918 Q120.76 264.645 117.682 269.251 Q114.626 273.834 108.816 273.834 Q103.006 273.834 99.927 269.251 Q96.8715 264.645 96.8715 255.918 Q96.8715 247.168 99.927 242.585 Q103.006 237.978 108.816 237.978 Z" fill="#000000" fill-rule="nonzero" fill-opacity="1"></path><path clip-path="url(#clip820)" d="M138.978 241.682 Q135.367 241.682 133.538 245.247 Q131.732 248.788 131.732 255.918 Q131.732 263.024 133.538 266.589 Q135.367 270.131 138.978 270.131 Q142.612 270.131 144.418 266.589 Q146.246 263.024 146.246 255.918 Q146.246 248.788 144.418 245.247 Q142.612 241.682 138.978 241.682 M138.978 237.978 Q144.788 237.978 147.843 242.585 Q150.922 247.168 150.922 255.918 Q150.922 264.645 147.843 269.251 Q144.788 273.834 138.978 273.834 Q133.168 273.834 130.089 269.251 Q127.033 264.645 127.033 255.918 Q127.033 247.168 130.089 242.585 Q133.168 237.978 138.978 237.978 Z" fill="#000000" fill-rule="nonzero" fill-opacity="1"></path><path clip-path="url(#clip820)" d="M173.306 254.529 Q176.663 255.247 178.538 257.515 Q180.436 259.784 180.436 263.117 Q180.436 268.233 176.917 271.033 Q173.399 273.834 166.917 273.834 Q164.742 273.834 162.427 273.395 Q160.135 272.978 157.681 272.121 L157.681 267.608 Q159.626 268.742 161.941 269.321 Q164.255 269.899 166.779 269.899 Q171.177 269.899 173.468 268.163 Q175.783 266.427 175.783 263.117 Q175.783 260.061 173.63 258.348 Q171.501 256.612 167.681 256.612 L163.654 256.612 L163.654 252.77 L167.866 252.77 Q171.316 252.77 173.144 251.404 Q174.973 250.015 174.973 247.422 Q174.973 244.76 173.075 243.348 Q171.2 241.913 167.681 241.913 Q165.76 241.913 163.561 242.33 Q161.362 242.747 158.723 243.626 L158.723 239.46 Q161.385 238.719 163.7 238.348 Q166.038 237.978 168.098 237.978 Q173.422 237.978 176.524 240.409 Q179.626 242.816 179.626 246.936 Q179.626 249.807 177.982 251.797 Q176.339 253.765 173.306 254.529 Z" fill="#000000" fill-rule="nonzero" fill-opacity="1"></path><polyline clip-path="url(#clip822)" style="stroke:#009af9; stroke-linecap:round; stroke-linejoin:round; stroke-width:4; stroke-opacity:1; fill:none" points="276.898,1187.11 317.206,1187.11 357.514,1187.11 397.822,1187.11 438.129,1187.11 478.437,1187.11 518.745,1187.11 559.053,1187.11 599.361,1187.11 639.669,1187.11 679.977,1187.11 720.285,1187.11 760.593,1187.11 800.901,1187.11 841.209,1187.11 881.517,1187.11 921.825,1187.11 962.132,1187.11 1002.44,1187.11 1042.75,1187.11 1083.06,1187.11 1123.36,1187.11 1163.67,1187.11 1203.98,1187.11 1244.29,1187.11 1284.6,1187.11 1324.9,1187.11 1365.21,1187.11 1405.52,1187.11 1445.83,1187.11 1486.14,1187.11 1526.44,1187.11 1566.75,1187.11 1607.06,1187.11 1647.37,1187.11 1687.68,1187.11 1727.98,1187.11 1768.29,1187.11 1808.6,1187.11 1848.91,1187.11 1889.21,1187.11 1929.52,1187.11 1969.83,1187.11 2010.14,1187.11 2050.45,1187.11 2090.75,1187.11 2131.06,1187.11 2171.37,1187.11 2211.68,1187.11 2251.99,1187.11 2292.29,1187.11 "></polyline>
<polyline clip-path="url(#clip822)" style="stroke:#e26f46; stroke-linecap:round; stroke-linejoin:round; stroke-width:4; stroke-opacity:1; fill:none" points="276.898,1187.11 317.206,1181.15 357.514,1175.18 397.822,1169.22 438.129,1163.32 478.437,1157.5 518.745,1151.8 559.053,1146.22 599.361,1140.81 639.669,1135.59 679.977,1130.57 720.285,1125.77 760.593,1121.22 800.901,1116.94 841.209,1112.95 881.517,1109.27 921.825,1105.94 962.132,1102.98 1002.44,1100.46 1042.75,1098.45 1083.06,1097.05 1123.36,1096.44 1163.67,1096.89 1203.98,1098.78 1244.29,1102.72 1284.6,1109.55 1324.9,1120.46 1365.21,1137.02 1405.52,1161.17 1445.83,1195.03 1486.14,1240.52 1526.44,1298.62 1566.75,1368.34 1607.06,1445.72 1647.37,308.686 1687.68,707.364 1727.98,971.11 1768.29,1111.93 1808.6,1176.79 1848.91,1207 1889.21,1224.46 1929.52,1236.79 1969.83,1245.52 2010.14,1250.53 2050.45,1251.54 2090.75,1248.51 2131.06,1241.62 2171.37,1231.3 2211.68,1218.21 2251.99,1203.17 2292.29,1187.11 "></polyline>
<polyline clip-path="url(#clip822)" style="stroke:#3da44d; stroke-linecap:round; stroke-linejoin:round; stroke-width:4; stroke-opacity:1; fill:none" points="276.898,1187.11 317.206,1176.42 357.514,1165.64 397.822,1154.85 438.129,1144.1 478.437,1133.45 518.745,1122.96 559.053,1112.67 599.361,1102.65 639.669,1092.96 679.977,1083.64 720.285,1074.75 760.593,1066.35 800.901,1058.52 841.209,1051.33 881.517,1044.87 921.825,1039.25 962.132,1034.6 1002.44,1031.08 1042.75,1028.92 1083.06,1028.35 1123.36,1029.7 1163.67,1033.35 1203.98,1039.73 1244.29,1049.34 1284.6,1062.72 1324.9,1080.4 1365.21,1102.85 1405.52,1130.35 1445.83,1162.96 1486.14,1200.3 1526.44,1241.46 1566.75,1284.89 1607.06,1328.31 1647.37,185.047 1687.68,496.777 1727.98,760.143 1768.29,958.758 1808.6,1095.06 1848.91,1182.51 1889.21,1236.82 1929.52,1270.34 1969.83,1290.54 2010.14,1301.05 2050.45,1303.3 2090.75,1297.93 2131.06,1285.51 2171.37,1266.89 2211.68,1243.26 2251.99,1216.09 2292.29,1187.11 "></polyline>
<polyline clip-path="url(#clip822)" style="stroke:#c271d2; stroke-linecap:round; stroke-linejoin:round; stroke-width:4; stroke-opacity:1; fill:none" points="276.898,1187.11 317.206,1172.58 357.514,1157.91 397.822,1143.19 438.129,1128.5 478.437,1113.93 518.745,1099.55 559.053,1085.45 599.361,1071.72 639.669,1058.45 679.977,1045.72 720.285,1033.64 760.593,1022.31 800.901,1011.84 841.209,1002.37 881.517,994.01 921.825,986.929 962.132,981.292 1002.44,977.287 1042.75,975.119 1083.06,975.013 1123.36,977.207 1163.67,981.948 1203.98,989.478 1244.29,1000.02 1284.6,1013.76 1324.9,1030.8 1365.21,1051.16 1405.52,1074.7 1445.83,1101.1 1486.14,1129.8 1526.44,1159.99 1566.75,1190.57 1607.06,1220.16 1647.37,132.441 1687.68,395.426 1727.98,638.488 1768.29,845.731 1808.6,1010.44 1848.91,1133.67 1889.21,1221.14 1929.52,1280.09 1969.83,1317.03 2010.14,1336.79 2050.45,1342.59 2090.75,1336.5 2131.06,1320.14 2171.37,1295.09 2211.68,1263.13 2251.99,1226.36 2292.29,1187.11 "></polyline>
<polyline clip-path="url(#clip822)" style="stroke:#ac8d18; stroke-linecap:round; stroke-linejoin:round; stroke-width:4; stroke-opacity:1; fill:none" points="276.898,1187.11 317.206,1169.53 357.514,1151.77 397.822,1133.94 438.129,1116.14 478.437,1098.46 518.745,1081.03 559.053,1063.93 599.361,1047.29 639.669,1031.22 679.977,1015.83 720.285,1001.26 760.593,987.628 800.901,975.069 841.209,963.724 881.517,953.738 921.825,945.265 962.132,938.461 1002.44,933.49 1042.75,930.513 1083.06,929.691 1123.36,931.175 1163.67,935.103 1203.98,941.587 1244.29,950.702 1284.6,962.472 1324.9,976.856 1365.21,993.725 1405.52,1012.85 1445.83,1033.88 1486.14,1056.32 1526.44,1079.52 1566.75,1102.7 1607.06,1124.88 1647.37,105.467 1687.68,337.196 1727.98,562.229 1768.29,766.778 1808.6,942.062 1848.91,1084.32 1889.21,1193.78 1929.52,1273.18 1969.83,1326.32 2010.14,1357.03 2050.45,1368.7 2090.75,1364.18 2131.06,1346 2171.37,1316.57 2211.68,1278.43 2251.99,1234.29 2292.29,1187.11 "></polyline>
<polyline clip-path="url(#clip822)" style="stroke:#00a9ad; stroke-linecap:round; stroke-linejoin:round; stroke-width:4; stroke-opacity:1; fill:none" points="276.898,1187.11 317.206,1167.17 357.514,1147.02 397.822,1126.77 438.129,1106.55 478.437,1086.46 518.745,1066.63 559.053,1047.18 599.361,1028.24 639.669,1009.94 679.977,992.406 720.285,975.779 760.593,960.193 800.901,945.788 841.209,932.703 881.517,921.08 921.825,911.059 962.132,902.778 1002.44,896.369 1042.75,891.958 1083.06,889.658 1123.36,889.566 1163.67,891.757 1203.98,896.277 1244.29,903.134 1284.6,912.293 1324.9,923.659 1365.21,937.078 1405.52,952.316 1445.83,969.056 1486.14,986.89 1526.44,1005.31 1566.75,1023.72 1607.06,1041.41 1647.37,92.3022 1687.68,301.739 1727.98,511.804 1768.29,710.47 1808.6,888.644 1848.91,1040.56 1889.21,1163.57 1929.52,1257.44 1969.83,1323.62 2010.14,1364.48 2050.45,1382.78 2090.75,1381.42 2131.06,1363.37 2171.37,1331.64 2211.68,1289.43 2251.99,1240.08 2292.29,1187.11 "></polyline>
<polyline clip-path="url(#clip822)" style="stroke:#ed5d92; stroke-linecap:round; stroke-linejoin:round; stroke-width:4; stroke-opacity:1; fill:none" points="276.898,1187.11 317.206,1165.36 357.514,1143.37 397.822,1121.26 438.129,1099.16 478.437,1077.19 518.745,1055.49 559.053,1034.17 599.361,1013.38 639.669,993.254 679.977,973.926 720.285,955.534 760.593,938.218 800.901,922.113 841.209,907.357 881.517,894.08 921.825,882.411 962.132,872.472 1002.44,864.374 1042.75,858.219 1083.06,854.092 1123.36,852.061 1163.67,852.17 1203.98,854.435 1244.29,858.84 1284.6,865.33 1324.9,873.804 1365.21,884.113 1405.52,896.05 1445.83,909.346 1486.14,923.67 1526.44,938.622 1566.75,953.737 1607.06,968.487 1647.37,87.9763 1687.68,280.279 1727.98,477.674 1768.29,669.473 1808.6,846.785 1848.91,1003 1889.21,1133.89 1929.52,1237.41 1969.83,1313.27 2010.14,1362.51 2050.45,1387.08 2090.75,1389.58 2131.06,1373 2171.37,1340.72 2211.68,1296.37 2251.99,1243.81 2292.29,1187.11 "></polyline>
<polyline clip-path="url(#clip822)" style="stroke:#c68125; stroke-linecap:round; stroke-linejoin:round; stroke-width:4; stroke-opacity:1; fill:none" points="276.898,1187.11 317.206,1163.97 357.514,1140.57 397.822,1117.03 438.129,1093.47 478.437,1070.03 518.745,1046.83 559.053,1024.02 599.361,1001.72 639.669,980.073 679.977,959.218 720.285,939.29 760.593,920.427 800.901,902.76 841.209,886.421 881.517,871.534 921.825,858.217 962.132,846.582 1002.44,836.728 1042.75,828.743 1083.06,822.697 1123.36,818.645 1163.67,816.619 1203.98,816.625 1244.29,818.643 1284.6,822.617 1324.9,828.458 1365.21,836.034 1405.52,845.174 1445.83,855.656 1486.14,867.215 1526.44,879.535 1566.75,892.253 1607.06,904.966 1647.37,89.8429 1687.68,268.227 1727.98,454.57 1768.29,639.221 1808.6,813.636 1848.91,970.887 1889.21,1105.9 1929.52,1215.48 1969.83,1298.14 2010.14,1353.89 2050.45,1383.9 2090.75,1390.33 2131.06,1376.05 2171.37,1344.51 2211.68,1299.64 2251.99,1245.68 2292.29,1187.11 "></polyline>
<polyline clip-path="url(#clip822)" style="stroke:#00a98d; stroke-linecap:round; stroke-linejoin:round; stroke-width:4; stroke-opacity:1; fill:none" points="276.898,1187.11 317.206,1162.9 357.514,1138.41 397.822,1113.76 438.129,1089.07 478.437,1064.47 518.745,1040.08 559.053,1016.06 599.361,992.516 639.669,969.601 679.977,947.445 720.285,926.183 760.593,905.947 800.901,886.867 841.209,869.068 881.517,852.669 921.825,837.784 962.132,824.515 1002.44,812.956 1042.75,803.187 1083.06,795.275 1123.36,789.269 1163.67,785.199 1203.98,783.072 1244.29,782.871 1284.6,784.553 1324.9,788.044 1365.21,793.238 1405.52,799.995 1445.83,808.139 1486.14,817.459 1526.44,827.709 1566.75,838.605 1607.06,849.835 1647.37,96.2802 1687.68,262.864 1727.98,439.305 1768.29,616.767 1808.6,787.097 1848.91,943.303 1889.21,1079.87 1929.52,1192.89 1969.83,1280.09 2010.14,1340.66 2050.45,1375.17 2090.75,1385.31 2131.06,1373.74 2171.37,1343.88 2211.68,1299.77 2251.99,1245.92 2292.29,1187.11 "></polyline>
<polyline clip-path="url(#clip822)" style="stroke:#8e971d; stroke-linecap:round; stroke-linejoin:round; stroke-width:4; stroke-opacity:1; fill:none" points="276.898,1187.11 317.206,1162.09 357.514,1136.76 397.822,1111.24 438.129,1085.66 478.437,1060.15 518.745,1034.82 559.053,1009.81 599.361,985.254 639.669,961.281 679.977,938.024 720.285,915.613 760.593,894.178 800.901,873.843 841.209,854.731 881.517,836.956 921.825,820.628 962.132,805.845 1002.44,792.7 1042.75,781.27 1083.06,771.62 1123.36,763.8 1163.67,757.843 1203.98,753.763 1244.29,751.553 1284.6,751.183 1324.9,752.597 1365.21,755.715 1405.52,760.429 1445.83,766.602 1486.14,774.07 1526.44,782.641 1566.75,792.098 1607.06,802.2 1647.37,106.197 1687.68,262.442 1727.98,429.814 1768.29,600.14 1808.6,765.65 1848.91,919.433 1889.21,1055.76 1929.52,1170.33 1969.83,1260.29 2010.14,1324.31 2050.45,1362.42 2090.75,1375.94 2131.06,1367.26 2171.37,1339.71 2211.68,1297.36 2251.99,1244.83 2292.29,1187.11 "></polyline>
<polyline clip-path="url(#clip822)" style="stroke:#00a8cb; stroke-linecap:round; stroke-linejoin:round; stroke-width:4; stroke-opacity:1; fill:none" points="276.898,1187.11 317.206,1161.46 357.514,1135.5 397.822,1109.32 438.129,1083.06 478.437,1056.82 518.745,1030.75 559.053,1004.95 599.361,979.568 639.669,954.723 679.977,930.544 720.285,907.159 760.593,884.692 800.901,863.266 841.209,842.998 881.517,824.001 921.825,806.381 962.132,790.237 1002.44,775.657 1042.75,762.722 1083.06,751.497 1123.36,742.037 1163.67,734.379 1203.98,728.546 1244.29,724.542 1284.6,722.352 1324.9,721.941 1365.21,723.25 1405.52,726.202 1445.83,730.693 1486.14,736.6 1526.44,743.776 1566.75,752.057 1607.06,761.261 1647.37,118.809 1687.68,265.768 1727.98,424.691 1768.29,587.968 1808.6,748.198 1848.91,898.622 1889.21,1033.46 1929.52,1148.16 1969.83,1239.56 2010.14,1305.9 2050.45,1346.85 2090.75,1363.37 2131.06,1357.63 2171.37,1332.82 2211.68,1292.95 2251.99,1242.68 2292.29,1187.11 "></polyline>
</svg>