<svg xmlns="http://www.w3.org/2000/svg" xmlns:xlink="http://www.w3.org/1999/xlink" width="600" height="400" viewBox="0 0 2400 1600">
<defs>
  <clipPath id="clip940">
    <rect x="0" y="0" width="2400" height="1600"></rect>
  </clipPath>
</defs>
<path clip-path="url(#clip940)" d="M0 1600 L2400 1600 L2400 0 L0 0  Z" fill="#ffffff" fill-rule="evenodd" fill-opacity="1"></path>
<defs>
  <clipPath id="clip941">
    <rect x="480" y="0" width="1681" height="1600"></rect>
  </clipPath>
</defs>
<path clip-path="url(#clip940)" d="M224.098 1486.45 L2352.76 1486.45 L2352.76 47.2441 L224.098 47.2441  Z" fill="#ffffff" fill-rule="evenodd" fill-opacity="1"></path>
<defs>
  <clipPath id="clip942">
    <rect x="224" y="47" width="2130" height="1440"></rect>
  </clipPath>
</defs>
<polyline clip-path="url(#clip942)" style="stroke:#000000; stroke-linecap:round; stroke-linejoin:round; stroke-width:2; stroke-opacity:0.1; fill:none" points="633.59,1486.45 633.59,47.2441 "></polyline>
<polyline clip-path="url(#clip942)" style="stroke:#000000; stroke-linecap:round; stroke-linejoin:round; stroke-width:2; stroke-opacity:0.1; fill:none" points="1070.15,1486.45 1070.15,47.2441 "></polyline>
<polyline clip-path="url(#clip942)" style="stroke:#000000; stroke-linecap:round; stroke-linejoin:round; stroke-width:2; stroke-opacity:0.1; fill:none" points="1506.71,1486.45 1506.71,47.2441 "></polyline>
<polyline clip-path="url(#clip942)" style="stroke:#000000; stroke-linecap:round; stroke-linejoin:round; stroke-width:2; stroke-opacity:0.1; fill:none" points="1943.26,1486.45 1943.26,47.2441 "></polyline>
<polyline clip-path="url(#clip940)" style="stroke:#000000; stroke-linecap:round; stroke-linejoin:round; stroke-width:4; stroke-opacity:1; fill:none" points="224.098,1486.45 2352.76,1486.45 "></polyline>
<polyline clip-path="url(#clip940)" style="stroke:#000000; stroke-linecap:round; stroke-linejoin:round; stroke-width:4; stroke-opacity:1; fill:none" points="633.59,1486.45 633.59,1467.55 "></polyline>
<polyline clip-path="url(#clip940)" style="stroke:#000000; stroke-linecap:round; stroke-linejoin:round; stroke-width:4; stroke-opacity:1; fill:none" points="1070.15,1486.45 1070.15,1467.55 "></polyline>
<polyline clip-path="url(#clip940)" style="stroke:#000000; stroke-linecap:round; stroke-linejoin:round; stroke-width:4; stroke-opacity:1; fill:none" points="1506.71,1486.45 1506.71,1467.55 "></polyline>
<polyline clip-path="url(#clip940)" style="stroke:#000000; stroke-linecap:round; stroke-linejoin:round; stroke-width:4; stroke-opacity:1; fill:none" points="1943.26,1486.45 1943.26,1467.55 "></polyline>
<path clip-path="url(#clip940)" d="M623.867 1514.29 L642.224 1514.29 L642.224 1518.22 L628.15 1518.22 L628.15 1526.7 Q629.168 1526.35 630.187 1526.19 Q631.205 1526 632.224 1526 Q638.011 1526 641.39 1529.17 Q644.77 1532.34 644.77 1537.76 Q644.77 1543.34 641.298 1546.44 Q637.826 1549.52 631.506 1549.52 Q629.33 1549.52 627.062 1549.15 Q624.816 1548.78 622.409 1548.04 L622.409 1543.34 Q624.492 1544.47 626.715 1545.03 Q628.937 1545.58 631.414 1545.58 Q635.418 1545.58 637.756 1543.48 Q640.094 1541.37 640.094 1537.76 Q640.094 1534.15 637.756 1532.04 Q635.418 1529.94 631.414 1529.94 Q629.539 1529.94 627.664 1530.35 Q625.812 1530.77 623.867 1531.65 L623.867 1514.29 Z" fill="#000000" fill-rule="nonzero" fill-opacity="1"></path><path clip-path="url(#clip940)" d="M1044.84 1544.91 L1052.47 1544.91 L1052.47 1518.55 L1044.16 1520.21 L1044.16 1515.95 L1052.43 1514.29 L1057.1 1514.29 L1057.1 1544.91 L1064.74 1544.91 L1064.74 1548.85 L1044.84 1548.85 L1044.84 1544.91 Z" fill="#000000" fill-rule="nonzero" fill-opacity="1"></path><path clip-path="url(#clip940)" d="M1084.19 1517.37 Q1080.58 1517.37 1078.75 1520.93 Q1076.94 1524.47 1076.94 1531.6 Q1076.94 1538.71 1078.75 1542.27 Q1080.58 1545.82 1084.19 1545.82 Q1087.82 1545.82 1089.63 1542.27 Q1091.46 1538.71 1091.46 1531.6 Q1091.46 1524.47 1089.63 1520.93 Q1087.82 1517.37 1084.19 1517.37 M1084.19 1513.66 Q1090 1513.66 1093.05 1518.27 Q1096.13 1522.85 1096.13 1531.6 Q1096.13 1540.33 1093.05 1544.94 Q1090 1549.52 1084.19 1549.52 Q1078.38 1549.52 1075.3 1544.94 Q1072.24 1540.33 1072.24 1531.6 Q1072.24 1522.85 1075.3 1518.27 Q1078.38 1513.66 1084.19 1513.66 Z" fill="#000000" fill-rule="nonzero" fill-opacity="1"></path><path clip-path="url(#clip940)" d="M1481.89 1544.91 L1489.53 1544.91 L1489.53 1518.55 L1481.22 1520.21 L1481.22 1515.95 L1489.48 1514.29 L1494.16 1514.29 L1494.16 1544.91 L1501.8 1544.91 L1501.8 1548.85 L1481.89 1548.85 L1481.89 1544.91 Z" fill="#000000" fill-rule="nonzero" fill-opacity="1"></path><path clip-path="url(#clip940)" d="M1511.29 1514.29 L1529.65 1514.29 L1529.65 1518.22 L1515.57 1518.22 L1515.57 1526.7 Q1516.59 1526.35 1517.61 1526.19 Q1518.63 1526 1519.65 1526 Q1525.43 1526 1528.81 1529.17 Q1532.19 1532.34 1532.19 1537.76 Q1532.19 1543.34 1528.72 1546.44 Q1525.25 1549.52 1518.93 1549.52 Q1516.75 1549.52 1514.48 1549.15 Q1512.24 1548.78 1509.83 1548.04 L1509.83 1543.34 Q1511.91 1544.47 1514.14 1545.03 Q1516.36 1545.58 1518.84 1545.58 Q1522.84 1545.58 1525.18 1543.48 Q1527.52 1541.37 1527.52 1537.76 Q1527.52 1534.15 1525.18 1532.04 Q1522.84 1529.94 1518.84 1529.94 Q1516.96 1529.94 1515.09 1530.35 Q1513.23 1530.77 1511.29 1531.65 L1511.29 1514.29 Z" fill="#000000" fill-rule="nonzero" fill-opacity="1"></path><path clip-path="url(#clip940)" d="M1922.04 1544.91 L1938.36 1544.91 L1938.36 1548.85 L1916.41 1548.85 L1916.41 1544.91 Q1919.07 1542.16 1923.66 1537.53 Q1928.26 1532.88 1929.44 1531.53 Q1931.69 1529.01 1932.57 1527.27 Q1933.47 1525.51 1933.47 1523.82 Q1933.47 1521.07 1931.53 1519.33 Q1929.61 1517.6 1926.51 1517.6 Q1924.31 1517.6 1921.85 1518.36 Q1919.42 1519.13 1916.64 1520.68 L1916.64 1515.95 Q1919.47 1514.82 1921.92 1514.24 Q1924.38 1513.66 1926.41 1513.66 Q1931.78 1513.66 1934.98 1516.35 Q1938.17 1519.03 1938.17 1523.52 Q1938.17 1525.65 1937.36 1527.57 Q1936.57 1529.47 1934.47 1532.07 Q1933.89 1532.74 1930.79 1535.95 Q1927.69 1539.15 1922.04 1544.91 Z" fill="#000000" fill-rule="nonzero" fill-opacity="1"></path><path clip-path="url(#clip940)" d="M1958.17 1517.37 Q1954.56 1517.37 1952.73 1520.93 Q1950.93 1524.47 1950.93 1531.6 Q1950.93 1538.71 1952.73 1542.27 Q1954.56 1545.82 1958.17 1545.82 Q1961.81 1545.82 1963.61 1542.27 Q1965.44 1538.71 1965.44 1531.6 Q1965.44 1524.47 1963.61 1520.93 Q1961.81 1517.37 1958.17 1517.37 M1958.17 1513.66 Q1963.98 1513.66 1967.04 1518.27 Q1970.12 1522.85 1970.12 1531.6 Q1970.12 1540.33 1967.04 1544.94 Q1963.98 1549.52 1958.17 1549.52 Q1952.36 1549.52 1949.28 1544.94 Q1946.23 1540.33 1946.23 1531.6 Q1946.23 1522.85 1949.28 1518.27 Q1952.36 1513.66 1958.17 1513.66 Z" fill="#000000" fill-rule="nonzero" fill-opacity="1"></path><polyline clip-path="url(#clip942)" style="stroke:#000000; stroke-linecap:round; stroke-linejoin:round; stroke-width:2; stroke-opacity:0.1; fill:none" points="224.098,1278 2352.76,1278 "></polyline>
<polyline clip-path="url(#clip942)" style="stroke:#000000; stroke-linecap:round; stroke-linejoin:round; stroke-width:2; stroke-opacity:0.1; fill:none" points="224.098,966.894 2352.76,966.894 "></polyline>
<polyline clip-path="url(#clip942)" style="stroke:#000000; stroke-linecap:round; stroke-linejoin:round; stroke-width:2; stroke-opacity:0.1; fill:none" points="224.098,655.786 2352.76,655.786 "></polyline>
<polyline clip-path="url(#clip942)" style="stroke:#000000; stroke-linecap:round; stroke-linejoin:round; stroke-width:2; stroke-opacity:0.1; fill:none" points="224.098,344.678 2352.76,344.678 "></polyline>
<polyline clip-path="url(#clip940)" style="stroke:#000000; stroke-linecap:round; stroke-linejoin:round; stroke-width:4; stroke-opacity:1; fill:none" points="224.098,1486.45 224.098,47.2441 "></polyline>
<polyline clip-path="url(#clip940)" style="stroke:#000000; stroke-linecap:round; stroke-linejoin:round; stroke-width:4; stroke-opacity:1; fill:none" points="224.098,1278 242.996,1278 "></polyline>
<polyline clip-path="url(#clip940)" style="stroke:#000000; stroke-linecap:round; stroke-linejoin:round; stroke-width:4; stroke-opacity:1; fill:none" points="224.098,966.894 242.996,966.894 "></polyline>
<polyline clip-path="url(#clip940)" style="stroke:#000000; stroke-linecap:round; stroke-linejoin:round; stroke-width:4; stroke-opacity:1; fill:none" points="224.098,655.786 242.996,655.786 "></polyline>
<polyline clip-path="url(#clip940)" style="stroke:#000000; stroke-linecap:round; stroke-linejoin:round; stroke-width:4; stroke-opacity:1; fill:none" points="224.098,344.678 242.996,344.678 "></polyline>
<path clip-path="url(#clip940)" d="M50.9921 1278.45 L80.6679 1278.45 L80.6679 1282.39 L50.9921 1282.39 L50.9921 1278.45 Z" fill="#000000" fill-rule="nonzero" fill-opacity="1"></path><path clip-path="url(#clip940)" d="M100.76 1263.8 Q97.1493 1263.8 95.3206 1267.37 Q93.515 1270.91 93.515 1278.04 Q93.515 1285.14 95.3206 1288.71 Q97.1493 1292.25 100.76 1292.25 Q104.395 1292.25 106.2 1288.71 Q108.029 1285.14 108.029 1278.04 Q108.029 1270.91 106.2 1267.37 Q104.395 1263.8 100.76 1263.8 M100.76 1260.1 Q106.571 1260.1 109.626 1264.7 Q112.705 1269.29 112.705 1278.04 Q112.705 1286.76 109.626 1291.37 Q106.571 1295.95 100.76 1295.95 Q94.9502 1295.95 91.8715 1291.37 Q88.816 1286.76 88.816 1278.04 Q88.816 1269.29 91.8715 1264.7 Q94.9502 1260.1 100.76 1260.1 Z" fill="#000000" fill-rule="nonzero" fill-opacity="1"></path><path clip-path="url(#clip940)" d="M120.922 1289.4 L125.807 1289.4 L125.807 1295.28 L120.922 1295.28 L120.922 1289.4 Z" fill="#000000" fill-rule="nonzero" fill-opacity="1"></path><path clip-path="url(#clip940)" d="M136.038 1260.72 L154.394 1260.72 L154.394 1264.66 L140.32 1264.66 L140.32 1273.13 Q141.339 1272.78 142.357 1272.62 Q143.376 1272.44 144.394 1272.44 Q150.181 1272.44 153.561 1275.61 Q156.941 1278.78 156.941 1284.19 Q156.941 1289.77 153.468 1292.88 Q149.996 1295.95 143.677 1295.95 Q141.501 1295.95 139.232 1295.58 Q136.987 1295.21 134.58 1294.47 L134.58 1289.77 Q136.663 1290.91 138.885 1291.46 Q141.107 1292.02 143.584 1292.02 Q147.589 1292.02 149.927 1289.91 Q152.265 1287.81 152.265 1284.19 Q152.265 1280.58 149.927 1278.48 Q147.589 1276.37 143.584 1276.37 Q141.709 1276.37 139.834 1276.79 Q137.982 1277.2 136.038 1278.08 L136.038 1260.72 Z" fill="#000000" fill-rule="nonzero" fill-opacity="1"></path><path clip-path="url(#clip940)" d="M176.153 1263.8 Q172.542 1263.8 170.714 1267.37 Q168.908 1270.91 168.908 1278.04 Q168.908 1285.14 170.714 1288.71 Q172.542 1292.25 176.153 1292.25 Q179.788 1292.25 181.593 1288.71 Q183.422 1285.14 183.422 1278.04 Q183.422 1270.91 181.593 1267.37 Q179.788 1263.8 176.153 1263.8 M176.153 1260.1 Q181.964 1260.1 185.019 1264.7 Q188.098 1269.29 188.098 1278.04 Q188.098 1286.76 185.019 1291.37 Q181.964 1295.95 176.153 1295.95 Q170.343 1295.95 167.265 1291.37 Q164.209 1286.76 164.209 1278.04 Q164.209 1269.29 167.265 1264.7 Q170.343 1260.1 176.153 1260.1 Z" fill="#000000" fill-rule="nonzero" fill-opacity="1"></path><path clip-path="url(#clip940)" d="M51.9875 967.346 L81.6633 967.346 L81.6633 971.281 L51.9875 971.281 L51.9875 967.346 Z" fill="#000000" fill-rule="nonzero" fill-opacity="1"></path><path clip-path="url(#clip940)" d="M101.756 952.693 Q98.1447 952.693 96.316 956.258 Q94.5104 959.799 94.5104 966.929 Q94.5104 974.035 96.316 977.6 Q98.1447 981.142 101.756 981.142 Q105.39 981.142 107.196 977.6 Q109.024 974.035 109.024 966.929 Q109.024 959.799 107.196 956.258 Q105.39 952.693 101.756 952.693 M101.756 948.989 Q107.566 948.989 110.621 953.596 Q113.7 958.179 113.7 966.929 Q113.7 975.656 110.621 980.262 Q107.566 984.846 101.756 984.846 Q95.9456 984.846 92.8669 980.262 Q89.8114 975.656 89.8114 966.929 Q89.8114 958.179 92.8669 953.596 Q95.9456 948.989 101.756 948.989 Z" fill="#000000" fill-rule="nonzero" fill-opacity="1"></path><path clip-path="url(#clip940)" d="M121.918 978.295 L126.802 978.295 L126.802 984.174 L121.918 984.174 L121.918 978.295 Z" fill="#000000" fill-rule="nonzero" fill-opacity="1"></path><path clip-path="url(#clip940)" d="M141.015 980.239 L157.334 980.239 L157.334 984.174 L135.39 984.174 L135.39 980.239 Q138.052 977.484 142.635 972.855 Q147.242 968.202 148.422 966.86 Q150.668 964.336 151.547 962.6 Q152.45 960.841 152.45 959.151 Q152.45 956.397 150.505 954.66 Q148.584 952.924 145.482 952.924 Q143.283 952.924 140.83 953.688 Q138.399 954.452 135.621 956.003 L135.621 951.281 Q138.445 950.147 140.899 949.568 Q143.353 948.989 145.39 948.989 Q150.76 948.989 153.955 951.674 Q157.149 954.36 157.149 958.85 Q157.149 960.98 156.339 962.901 Q155.552 964.799 153.445 967.392 Q152.867 968.063 149.765 971.281 Q146.663 974.475 141.015 980.239 Z" fill="#000000" fill-rule="nonzero" fill-opacity="1"></path><path clip-path="url(#clip940)" d="M167.195 949.614 L185.552 949.614 L185.552 953.549 L171.478 953.549 L171.478 962.022 Q172.496 961.674 173.515 961.512 Q174.533 961.327 175.552 961.327 Q181.339 961.327 184.718 964.498 Q188.098 967.67 188.098 973.086 Q188.098 978.665 184.626 981.767 Q181.153 984.846 174.834 984.846 Q172.658 984.846 170.39 984.475 Q168.144 984.105 165.737 983.364 L165.737 978.665 Q167.82 979.799 170.042 980.355 Q172.265 980.91 174.741 980.91 Q178.746 980.91 181.084 978.804 Q183.422 976.697 183.422 973.086 Q183.422 969.475 181.084 967.369 Q178.746 965.262 174.741 965.262 Q172.866 965.262 170.991 965.679 Q169.14 966.096 167.195 966.975 L167.195 949.614 Z" fill="#000000" fill-rule="nonzero" fill-opacity="1"></path><path clip-path="url(#clip940)" d="M100.76 641.585 Q97.1493 641.585 95.3206 645.149 Q93.515 648.691 93.515 655.821 Q93.515 662.927 95.3206 666.492 Q97.1493 670.034 100.76 670.034 Q104.395 670.034 106.2 666.492 Q108.029 662.927 108.029 655.821 Q108.029 648.691 106.2 645.149 Q104.395 641.585 100.76 641.585 M100.76 637.881 Q106.571 637.881 109.626 642.487 Q112.705 647.071 112.705 655.821 Q112.705 664.547 109.626 669.154 Q106.571 673.737 100.76 673.737 Q94.9502 673.737 91.8715 669.154 Q88.816 664.547 88.816 655.821 Q88.816 647.071 91.8715 642.487 Q94.9502 637.881 100.76 637.881 Z" fill="#000000" fill-rule="nonzero" fill-opacity="1"></path><path clip-path="url(#clip940)" d="M120.922 667.186 L125.807 667.186 L125.807 673.066 L120.922 673.066 L120.922 667.186 Z" fill="#000000" fill-rule="nonzero" fill-opacity="1"></path><path clip-path="url(#clip940)" d="M145.992 641.585 Q142.381 641.585 140.552 645.149 Q138.746 648.691 138.746 655.821 Q138.746 662.927 140.552 666.492 Q142.381 670.034 145.992 670.034 Q149.626 670.034 151.431 666.492 Q153.26 662.927 153.26 655.821 Q153.26 648.691 151.431 645.149 Q149.626 641.585 145.992 641.585 M145.992 637.881 Q151.802 637.881 154.857 642.487 Q157.936 647.071 157.936 655.821 Q157.936 664.547 154.857 669.154 Q151.802 673.737 145.992 673.737 Q140.181 673.737 137.103 669.154 Q134.047 664.547 134.047 655.821 Q134.047 647.071 137.103 642.487 Q140.181 637.881 145.992 637.881 Z" fill="#000000" fill-rule="nonzero" fill-opacity="1"></path><path clip-path="url(#clip940)" d="M176.153 641.585 Q172.542 641.585 170.714 645.149 Q168.908 648.691 168.908 655.821 Q168.908 662.927 170.714 666.492 Q172.542 670.034 176.153 670.034 Q179.788 670.034 181.593 666.492 Q183.422 662.927 183.422 655.821 Q183.422 648.691 181.593 645.149 Q179.788 641.585 176.153 641.585 M176.153 637.881 Q181.964 637.881 185.019 642.487 Q188.098 647.071 188.098 655.821 Q188.098 664.547 185.019 669.154 Q181.964 673.737 176.153 673.737 Q170.343 673.737 167.265 669.154 Q164.209 664.547 164.209 655.821 Q164.209 647.071 167.265 642.487 Q170.343 637.881 176.153 637.881 Z" fill="#000000" fill-rule="nonzero" fill-opacity="1"></path><path clip-path="url(#clip940)" d="M101.756 330.476 Q98.1447 330.476 96.316 334.041 Q94.5104 337.583 94.5104 344.712 Q94.5104 351.819 96.316 355.384 Q98.1447 358.925 101.756 358.925 Q105.39 358.925 107.196 355.384 Q109.024 351.819 109.024 344.712 Q109.024 337.583 107.196 334.041 Q105.39 330.476 101.756 330.476 M101.756 326.773 Q107.566 326.773 110.621 331.379 Q113.7 335.962 113.7 344.712 Q113.7 353.439 110.621 358.046 Q107.566 362.629 101.756 362.629 Q95.9456 362.629 92.8669 358.046 Q89.8114 353.439 89.8114 344.712 Q89.8114 335.962 92.8669 331.379 Q95.9456 326.773 101.756 326.773 Z" fill="#000000" fill-rule="nonzero" fill-opacity="1"></path><path clip-path="url(#clip940)" d="M121.918 356.078 L126.802 356.078 L126.802 361.958 L121.918 361.958 L121.918 356.078 Z" fill="#000000" fill-rule="nonzero" fill-opacity="1"></path><path clip-path="url(#clip940)" d="M141.015 358.022 L157.334 358.022 L157.334 361.958 L135.39 361.958 L135.39 358.022 Q138.052 355.268 142.635 350.638 Q147.242 345.985 148.422 344.643 Q150.668 342.12 151.547 340.384 Q152.45 338.624 152.45 336.935 Q152.45 334.18 150.505 332.444 Q148.584 330.708 145.482 330.708 Q143.283 330.708 140.83 331.472 Q138.399 332.235 135.621 333.786 L135.621 329.064 Q138.445 327.93 140.899 327.351 Q143.353 326.773 145.39 326.773 Q150.76 326.773 153.955 329.458 Q157.149 332.143 157.149 336.634 Q157.149 338.763 156.339 340.685 Q155.552 342.583 153.445 345.175 Q152.867 345.847 149.765 349.064 Q146.663 352.259 141.015 358.022 Z" fill="#000000" fill-rule="nonzero" fill-opacity="1"></path><path clip-path="url(#clip940)" d="M167.195 327.398 L185.552 327.398 L185.552 331.333 L171.478 331.333 L171.478 339.805 Q172.496 339.458 173.515 339.296 Q174.533 339.11 175.552 339.11 Q181.339 339.11 184.718 342.282 Q188.098 345.453 188.098 350.87 Q188.098 356.448 184.626 359.55 Q181.153 362.629 174.834 362.629 Q172.658 362.629 170.39 362.258 Q168.144 361.888 165.737 361.147 L165.737 356.448 Q167.82 357.583 170.042 358.138 Q172.265 358.694 174.741 358.694 Q178.746 358.694 181.084 356.587 Q183.422 354.481 183.422 350.87 Q183.422 347.259 181.084 345.152 Q178.746 343.046 174.741 343.046 Q172.866 343.046 170.991 343.462 Q169.14 343.879 167.195 344.759 L167.195 327.398 Z" fill="#000000" fill-rule="nonzero" fill-opacity="1"></path><polyline clip-path="url(#clip942)" style="stroke:#009af9; stroke-linecap:round; stroke-linejoin:round; stroke-width:4; stroke-opacity:1; fill:none" points="284.343,312.932 371.655,337.635 458.966,378.083 546.278,433.209 633.59,501.551 720.901,581.286 808.213,670.271 895.524,766.087 982.836,866.098 1070.15,967.508 1157.46,1067.43 1244.77,1162.93 1332.08,1251.12 1419.39,1329.24 1506.71,1394.66 1594.02,1445 1681.33,338 1768.64,387.353 1855.95,747.178 1943.26,1084.39 2030.58,1315.58 2117.89,1383.54 2205.2,1271.46 2292.51,1007.08 "></polyline>
<polyline clip-path="url(#clip942)" style="stroke:#e26f46; stroke-linecap:round; stroke-linejoin:round; stroke-width:4; stroke-opacity:1; fill:none" points="284.343,312.247 371.655,336.977 458.966,377.47 546.278,432.657 633.59,501.075 720.901,580.9 808.213,669.985 895.524,765.911 982.836,866.039 1070.15,967.57 1157.46,1067.61 1244.77,1163.23 1332.08,1251.55 1419.39,1329.77 1506.71,1395.29 1594.02,1445.72 1681.33,87.9763 1768.64,384.506 1855.95,748.147 1943.26,1088.94 2030.58,1322.57 2117.89,1391.26 2205.2,1277.99 2292.51,1010.8 "></polyline>
<path clip-path="url(#clip940)" d="M2016.5 250.738 L2281.8 250.738 L2281.8 95.2176 L2016.5 95.2176  Z" fill="#ffffff" fill-rule="evenodd" fill-opacity="1"></path>
<polyline clip-path="url(#clip940)" style="stroke:#000000; stroke-linecap:round; stroke-linejoin:round; stroke-width:4; stroke-opacity:1; fill:none" points="2016.5,250.738 2281.8,250.738 2281.8,95.2176 2016.5,95.2176 2016.5,250.738 "></polyline>
<polyline clip-path="url(#clip940)" style="stroke:#009af9; stroke-linecap:round; stroke-linejoin:round; stroke-width:4; stroke-opacity:1; fill:none" points="2040.16,147.058 2182.07,147.058 "></polyline>
<path clip-path="url(#clip940)" d="M2219.56 166.745 Q2217.76 171.375 2216.04 172.787 Q2214.33 174.199 2211.46 174.199 L2208.06 174.199 L2208.06 170.634 L2210.56 170.634 Q2212.32 170.634 2213.29 169.8 Q2214.26 168.967 2215.44 165.865 L2216.2 163.921 L2205.72 138.412 L2210.23 138.412 L2218.33 158.689 L2226.44 138.412 L2230.95 138.412 L2219.56 166.745 Z" fill="#000000" fill-rule="nonzero" fill-opacity="1"></path><path clip-path="url(#clip940)" d="M2238.24 160.402 L2245.88 160.402 L2245.88 134.037 L2237.57 135.703 L2237.57 131.444 L2245.83 129.778 L2250.51 129.778 L2250.51 160.402 L2258.15 160.402 L2258.15 164.338 L2238.24 164.338 L2238.24 160.402 Z" fill="#000000" fill-rule="nonzero" fill-opacity="1"></path><polyline clip-path="url(#clip940)" style="stroke:#e26f46; stroke-linecap:round; stroke-linejoin:round; stroke-width:4; stroke-opacity:1; fill:none" points="2040.16,198.898 2182.07,198.898 "></polyline>
<path clip-path="url(#clip940)" d="M2219.56 218.585 Q2217.76 223.215 2216.04 224.627 Q2214.33 226.039 2211.46 226.039 L2208.06 226.039 L2208.06 222.474 L2210.56 222.474 Q2212.32 222.474 2213.29 221.64 Q2214.26 220.807 2215.44 217.705 L2216.2 215.761 L2205.72 190.252 L2210.23 190.252 L2218.33 210.529 L2226.44 190.252 L2230.95 190.252 L2219.56 218.585 Z" fill="#000000" fill-rule="nonzero" fill-opacity="1"></path><path clip-path="url(#clip940)" d="M2241.46 212.242 L2257.78 212.242 L2257.78 216.178 L2235.83 216.178 L2235.83 212.242 Q2238.5 209.488 2243.08 204.858 Q2247.69 200.205 2248.87 198.863 Q2251.11 196.34 2251.99 194.604 Q2252.89 192.844 2252.89 191.155 Q2252.89 188.4 2250.95 186.664 Q2249.03 184.928 2245.93 184.928 Q2243.73 184.928 2241.27 185.692 Q2238.84 186.455 2236.07 188.006 L2236.07 183.284 Q2238.89 182.15 2241.34 181.571 Q2243.8 180.993 2245.83 180.993 Q2251.2 180.993 2254.4 183.678 Q2257.59 186.363 2257.59 190.854 Q2257.59 192.983 2256.78 194.905 Q2256 196.803 2253.89 199.395 Q2253.31 200.067 2250.21 203.284 Q2247.11 206.479 2241.46 212.242 Z" fill="#000000" fill-rule="nonzero" fill-opacity="1"></path></svg>